<?xml version="1.0" standalone="no"?>
<!DOCTYPE svg PUBLIC "-//W3C//DTD SVG 20010904//EN"
 "http://www.w3.org/TR/2001/REC-SVG-20010904/DTD/svg10.dtd">
<svg version="1.0" xmlns="http://www.w3.org/2000/svg"
 width="1024.000000pt" height="1024.000000pt" viewBox="0 0 1024.000000 1024.000000"
 preserveAspectRatio="xMidYMid meet">

<g transform="translate(0.000000,1024.000000) scale(0.100000,-0.100000)"
fill="#000000" stroke="none">
<path d="M0 5120 l0 -5120 5120 0 5120 0 0 5120 0 5120 -5120 0 -5120 0 0
-5120z m6150 2455 c121 -18 214 -47 315 -97 103 -52 161 -94 260 -189 72 -70
86 -79 145 -93 170 -43 363 -178 454 -318 18 -27 18 -28 -5 -37 -28 -10 -362
-139 -464 -178 -130 -51 -217 -166 -232 -308 -4 -39 1 -70 25 -140 60 -179 76
-282 77 -475 0 -96 -3 -194 -8 -217 l-7 -43 135 0 134 0 44 44 c95 95 245 77
311 -37 47 -80 43 -152 -12 -226 -57 -77 -194 -95 -269 -35 -21 17 -47 49 -58
72 l-20 41 -150 1 -150 0 -28 -90 c-35 -115 -94 -239 -162 -341 l-55 -81 73
-78 c39 -42 146 -156 237 -253 l165 -177 130 0 c99 1 135 4 149 15 48 36 138
7 163 -52 44 -106 -75 -203 -166 -135 -28 20 -41 22 -173 22 -79 0 -148 4
-153 8 -9 6 -340 360 -463 495 -23 26 -45 47 -48 47 -3 0 -17 -15 -32 -32
-129 -157 -334 -320 -519 -412 -79 -39 -293 -116 -325 -116 -47 -1 -38 -19 88
-195 l127 -177 46 6 c100 13 232 -53 298 -149 40 -57 61 -127 65 -215 l3 -65
-80 0 -80 0 -3 50 c-4 91 -12 116 -53 160 -53 57 -91 69 -193 61 l-81 -6 -36
48 c-57 75 -389 550 -394 564 -4 10 22 18 102 32 196 33 431 124 601 233 208
133 437 391 550 618 90 182 132 348 139 555 6 171 -1 229 -63 475 l-44 180 14
84 c26 149 108 274 226 346 53 32 338 135 375 135 27 0 16 17 -33 48 -71 46
-150 79 -249 102 -85 21 -89 23 -126 71 -52 68 -186 173 -282 219 -191 93
-445 112 -675 49 -100 -27 -267 -108 -349 -168 -77 -57 -227 -209 -292 -296
-25 -33 -67 -96 -94 -140 -48 -79 -155 -300 -155 -321 0 -6 -36 -39 -80 -73
-132 -104 -270 -266 -380 -446 -53 -87 -208 -397 -254 -508 -86 -206 -212
-558 -313 -872 -70 -219 -163 -527 -163 -542 0 -11 -232 -224 -238 -219 -1 2
22 79 52 172 30 93 98 309 151 479 54 171 108 339 121 374 13 35 24 70 24 78
0 12 -51 14 -352 12 -322 -3 -355 -4 -377 -21 -15 -11 -41 -18 -68 -18 -36 0
-50 6 -74 29 -24 24 -29 38 -29 76 0 40 5 52 34 81 42 42 98 47 143 12 l28
-23 379 5 378 5 33 90 c17 50 44 118 58 153 l26 62 -225 0 -224 0 -40 -29
c-54 -39 -117 -55 -198 -49 -164 12 -282 139 -282 304 0 170 128 299 296 298
169 0 298 -131 298 -301 l-1 -73 219 0 218 0 17 43 c9 23 42 93 73 155 l57
112 -131 0 -132 0 -194 205 -195 205 -127 0 c-110 0 -132 -3 -160 -20 -52 -32
-103 -27 -144 14 -38 38 -45 86 -19 135 15 30 69 61 105 61 26 0 77 -25 82
-41 2 -7 52 -11 158 -10 l155 2 146 -148 c80 -81 168 -172 195 -202 l50 -53
144 1 c80 1 146 5 148 10 1 4 38 61 81 127 101 152 181 245 322 374 94 85 116
110 125 144 43 158 202 403 371 568 110 107 127 122 236 192 247 162 526 224
807 181z m11 -301 c132 -29 291 -116 377 -206 l33 -35 -48 -39 c-104 -83 -271
-234 -324 -291 -58 -63 -153 -214 -188 -298 -12 -28 -26 -58 -31 -68 -16 -27
-58 -214 -65 -287 -4 -36 -9 -76 -11 -90 -3 -14 -8 -97 -11 -185 -4 -88 -9
-152 -11 -142 -5 24 -26 16 -30 -11 -2 -12 -7 -22 -12 -22 -5 0 -6 -7 -3 -17
5 -11 3 -14 -6 -8 -19 11 4 -31 45 -82 24 -28 32 -47 27 -60 -10 -29 -46 -47
-41 -20 2 7 -5 11 -17 9 -11 -2 -27 -4 -36 -5 -9 -1 -16 -7 -16 -13 0 -7 6
-10 14 -7 9 3 11 0 7 -10 -7 -20 29 -32 53 -17 15 8 13 9 -8 4 -15 -3 -30 -1
-33 5 -5 7 -1 8 10 4 11 -4 15 -2 11 4 -4 7 2 10 17 9 13 0 22 -5 19 -9 -2 -4
6 -5 20 -2 15 4 28 2 32 -6 5 -7 4 -10 -2 -6 -6 4 -24 2 -41 -4 -24 -8 -29
-15 -25 -32 5 -21 5 -21 -9 -3 -8 10 -28 19 -45 20 -23 1 -29 4 -22 13 7 8 4
10 -10 6 -12 -3 -21 -10 -21 -15 0 -5 -6 -6 -12 -2 -8 4 -10 3 -5 -2 5 -5 23
-10 40 -10 72 -3 74 -4 42 -20 l-30 -14 30 5 30 4 -30 -14 c-16 -8 -37 -14
-45 -14 -10 0 -8 3 5 9 18 8 18 9 -5 10 l-25 2 25 8 c15 5 18 8 8 9 -25 1 -49
-10 -42 -20 3 -5 -5 -9 -18 -10 -21 -1 -21 -1 4 -9 15 -4 34 -15 43 -23 13
-13 10 -15 -28 -11 -31 3 -36 2 -17 -4 24 -8 23 -9 -14 -16 -21 -4 -41 -5 -44
-2 -3 3 1 6 9 6 12 0 12 2 -1 10 -11 7 -3 11 30 16 l45 8 -39 8 c-45 10 -43
10 -49 -22 -3 -14 -8 -33 -12 -42 -7 -18 7 -23 43 -19 6 1 20 -3 30 -9 14 -9
12 -10 -13 -6 l-30 5 29 -13 30 -14 -32 -7 c-18 -3 -30 -10 -27 -14 2 -5 -7
-6 -20 -3 -28 5 -34 23 -7 20 9 -1 26 0 36 0 20 2 20 2 0 17 -28 21 -52 18
-60 -7 -4 -15 -1 -26 12 -36 14 -10 15 -13 4 -12 -8 1 -20 2 -26 1 -16 -1 -38
-57 -28 -72 4 -8 3 -10 -4 -5 -11 7 -17 -13 -13 -38 1 -5 -7 -6 -18 -3 -22 5
-23 -12 -2 -37 12 -14 12 -16 -3 -10 -11 4 -16 2 -14 -7 2 -9 -8 -15 -27 -17
l-30 -4 25 -15 c14 -8 17 -12 7 -9 -10 3 -28 6 -38 6 -13 0 -18 4 -13 12 4 7
3 8 -5 4 -9 -6 -9 -11 -1 -21 8 -10 4 -14 -15 -19 -14 -4 -30 -4 -35 -1 -5 3
-12 0 -16 -6 -5 -8 4 -10 29 -7 20 2 33 0 31 -4 -3 -4 -12 -8 -20 -8 -8 0 -14
-4 -14 -10 0 -5 -15 -9 -32 -9 l-33 1 30 8 c27 7 26 8 -15 9 -34 0 -41 -2 -30
-10 13 -9 13 -10 0 -8 -34 3 -60 -2 -60 -12 0 -7 10 -9 25 -7 13 3 22 1 19 -3
-3 -5 -23 -7 -45 -5 -45 4 -65 16 -28 16 19 0 21 2 9 10 -13 8 -12 10 3 10 10
0 16 4 13 9 -3 5 12 36 34 70 22 34 54 90 71 124 36 69 110 250 105 254 -2 2
-15 -15 -30 -37 -38 -57 -178 -215 -246 -278 -32 -28 -98 -82 -146 -119 l-89
-66 46 54 c202 239 333 512 395 819 39 197 41 277 9 384 -14 49 -45 130 -67
179 l-42 88 30 25 c100 84 255 168 364 197 l55 15 -77 1 -76 1 -4 73 c-4 62
-1 80 22 132 34 77 70 118 123 144 62 30 81 27 95 -13 17 -45 72 -93 118 -102
117 -22 238 106 203 214 -26 83 -103 142 -185 142 -51 0 -127 -47 -155 -95
-12 -19 -31 -37 -43 -39 -11 -2 -57 -9 -101 -16 -112 -16 -271 -71 -395 -136
-103 -54 -104 -55 -65 -19 27 25 32 32 16 24 -23 -11 -23 -9 7 27 109 135 208
217 341 283 216 108 369 131 572 85z m-151 -194 c11 -11 20 -27 20 -36 0 -17
-52 -74 -68 -74 -21 0 -62 43 -62 65 0 26 42 65 71 65 11 0 28 -9 39 -20z
m-1430 -35 c41 -21 64 -68 57 -119 -14 -100 -148 -130 -204 -47 -68 101 40
221 147 166z m2220 -54 c143 -42 141 -45 -35 -51 -88 -4 -161 -5 -163 -4 -2 1
14 18 35 38 45 42 69 44 163 17z m-2685 -99 c22 -11 52 -33 67 -49 27 -28 78
-127 78 -151 0 -11 40 -13 196 -10 l196 3 -78 -72 -79 -72 -127 -1 -127 0 -48
-48 c-108 -108 -267 -109 -373 -2 -73 72 -96 162 -65 249 27 79 86 139 162
167 51 19 148 12 198 -14z m1481 -44 c-46 -64 -60 -104 -62 -173 l-1 -69 -69
-22 c-75 -23 -155 -59 -194 -87 -24 -17 -26 -17 -38 0 -13 17 -14 17 -28 -1
-14 -20 -14 -20 -14 0 0 16 -2 17 -10 4 -7 -11 -10 -11 -10 -2 0 7 -4 11 -8 8
-4 -2 -14 0 -22 6 -12 8 -12 9 2 4 13 -4 20 2 24 19 7 30 20 32 29 5 9 -27 41
-25 56 3 6 12 9 19 5 16 -4 -4 -29 1 -56 11 -41 15 -50 15 -54 4 -8 -21 -26
-17 -26 6 0 11 5 20 12 20 6 0 8 3 5 6 -10 11 -38 -18 -33 -33 3 -7 -1 -13
-10 -13 -8 0 -12 5 -8 11 3 6 -5 3 -20 -6 -52 -34 -36 -7 31 52 122 107 245
180 385 228 40 13 86 25 102 25 28 0 28 -1 12 -22z m-485 -315 c13 -15 12 -15
-6 -6 -11 6 -27 13 -35 16 -10 4 -8 6 6 6 12 1 28 -6 35 -16z m-21 -223 c88
-45 154 -147 166 -257 9 -82 -3 -173 -22 -173 -15 0 -19 -16 -5 -22 5 -1 3
-16 -4 -33 -13 -27 -13 -28 -11 -5 4 30 -10 50 -35 50 -11 0 -19 5 -19 11 0 6
-6 9 -12 6 -7 -2 -12 -12 -10 -22 2 -11 -1 -14 -9 -9 -8 5 -10 3 -4 -6 5 -9 4
-11 -4 -6 -6 4 -9 16 -6 27 7 22 -7 25 -24 5 -6 -8 -20 -16 -30 -19 -14 -3
-17 0 -14 14 6 21 19 25 25 7 3 -9 6 -9 12 0 4 7 -2 14 -17 18 -19 4 -24 11
-20 27 4 18 3 19 -6 7 -9 -13 -11 -13 -11 3 0 9 -6 17 -13 17 -14 0 -59 -43
-55 -51 2 -2 1 -3 -1 -2 -1 1 -32 -22 -66 -52 -35 -29 -73 -59 -85 -65 -11 -6
-17 -16 -14 -22 4 -6 3 -8 -3 -5 -6 4 -22 -2 -35 -12 -32 -26 -325 -208 -410
-255 -38 -21 -68 -34 -68 -29 2 22 107 237 120 243 183 83 343 190 476 319 85
83 94 105 37 89 -21 -5 -51 -20 -68 -32 -16 -12 -48 -29 -70 -38 -22 -9 -65
-27 -95 -41 -30 -14 -69 -29 -85 -33 -17 -4 -36 -12 -44 -18 -8 -6 5 18 29 54
65 96 243 271 309 303 68 34 144 36 201 7z m2102 -113 c62 -34 92 -88 96 -171
4 -66 2 -74 -28 -114 -37 -52 -96 -81 -162 -82 -60 0 -95 13 -137 53 -43 41
-61 84 -61 145 0 153 158 244 292 169z m-2179 -264 c-7 -2 -13 -14 -13 -26 0
-18 -2 -19 -10 -7 -10 16 5 41 24 39 7 0 6 -2 -1 -6z m147 -81 c0 -14 2 -15
10 -2 12 19 20 10 30 -36 9 -40 -3 -89 -20 -79 -5 3 -10 0 -10 -7 0 -9 -3 -9
-10 2 -11 17 -13 10 -4 -14 3 -9 10 -13 15 -10 5 3 6 -2 3 -10 -3 -9 -11 -14
-17 -13 -6 1 -13 -8 -15 -20 -3 -19 -10 -23 -41 -23 -31 0 -40 5 -50 27 -8 18
-9 29 -1 37 12 12 13 26 2 26 -5 0 -14 -10 -20 -22 -8 -18 -11 -19 -11 -6 -1
10 8 23 19 30 11 7 20 19 20 26 0 7 -4 11 -9 8 -5 -4 -7 3 -4 14 3 11 13 20
23 20 10 0 20 6 23 13 3 8 11 3 25 -13 12 -14 21 -21 22 -17 0 5 -7 15 -15 23
-16 17 -21 39 -6 30 13 -8 34 21 25 35 -4 8 -3 9 4 5 7 -4 12 -15 12 -24z
m-205 7 c11 -16 1 -19 -13 -3 -7 8 -8 14 -3 14 5 0 13 -5 16 -11z m135 -29
c-6 -11 -15 -20 -21 -20 -6 0 -6 7 1 20 6 11 15 20 21 20 6 0 6 -7 -1 -20z
m-200 -20 c0 -5 -5 -10 -11 -10 -7 0 -18 -8 -25 -17 -7 -10 -14 -13 -14 -6 0
6 10 19 22 27 26 19 28 19 28 6z m63 -37 c-7 -2 -19 -2 -25 0 -7 3 -2 5 12 5
14 0 19 -2 13 -5z m-83 -23 c0 -5 -2 -10 -4 -10 -3 0 -8 5 -11 10 -3 6 -1 10
4 10 6 0 11 -4 11 -10z m80 -6 c0 -8 -19 -13 -24 -6 -3 5 1 9 9 9 8 0 15 -2
15 -3z m57 -97 c0 -8 -6 -14 -13 -14 -7 0 -10 6 -7 14 3 7 8 13 12 13 4 0 8
-6 8 -13z m105 -62 c0 -5 -5 -11 -11 -13 -6 -2 -11 4 -11 13 0 9 5 15 11 13 6
-2 11 -8 11 -13z m765 -1 c-3 -3 -12 -4 -19 -1 -8 3 -5 6 6 6 11 1 17 -2 13
-5z m17 -32 c3 -5 -1 -9 -9 -9 -8 0 -12 4 -9 9 3 4 7 8 9 8 2 0 6 -4 9 -8z m5
-49 c-2 -24 -2 -25 -6 -5 -2 12 -8 20 -13 17 -5 -3 -11 -1 -15 5 -3 5 3 10 14
10 17 0 21 -6 20 -27z m37 -81 c-3 -3 2 -11 12 -18 15 -12 15 -12 -6 -7 -24 6
-40 23 -22 23 6 0 8 5 4 12 -5 7 -3 8 5 4 7 -5 10 -10 7 -14z m-86 -12 c-8 -5
-19 -10 -25 -10 -5 0 -3 5 5 10 8 5 20 10 25 10 6 0 3 -5 -5 -10z m120 -54 c0
-2 -15 -6 -34 -8 -19 -2 -32 0 -30 4 5 8 64 12 64 4z m59 -16 c-6 -5 -18 -6
-26 -3 -19 8 -16 11 13 11 17 0 22 -3 13 -8z m-182 -56 c-3 -3 -12 -4 -19 -1
-8 3 -5 6 6 6 11 1 17 -2 13 -5z m-40 -10 c-3 -3 -12 -4 -19 -1 -8 3 -5 6 6 6
11 1 17 -2 13 -5z m43 -8 c0 -2 -9 -6 -20 -9 -11 -3 -18 -1 -14 4 5 9 34 13
34 5z m-15 -26 c-3 -5 -12 -10 -18 -10 -7 0 -6 4 3 10 19 12 23 12 15 0z
m-100 -20 c-12 -5 -14 -9 -6 -9 8 -1 12 -3 9 -6 -8 -9 -38 6 -32 16 3 5 15 9
27 8 21 0 21 -1 2 -9z m-30 -138 c-3 -3 -11 0 -18 7 -9 10 -8 11 6 5 10 -3 15
-9 12 -12z m-60 -32 c3 -6 -1 -7 -9 -4 -18 7 -21 14 -7 14 6 0 13 -4 16 -10z
m1162 -95 l88 -95 122 -6 c114 -5 125 -3 152 16 54 41 138 25 167 -32 25 -49
18 -96 -20 -134 -41 -41 -97 -47 -139 -14 -23 18 -40 20 -177 20 l-151 0 -52
58 c-28 31 -75 82 -105 112 l-54 55 28 57 c15 32 33 58 40 58 7 0 52 -43 101
-95z m-1302 -93 c-3 -3 -11 0 -18 7 -9 10 -8 11 6 5 10 -3 15 -9 12 -12z
m-2191 -233 c104 -91 -2 -247 -124 -184 -32 17 -60 61 -60 95 0 35 31 90 59
105 44 24 86 18 125 -16z m2986 -352 c27 -14 56 -41 74 -70 17 -25 38 -49 47
-52 16 -6 188 -178 280 -282 l55 -62 52 16 c93 30 181 -9 227 -101 57 -115 6
-236 -118 -276 -73 -23 -169 14 -214 82 -22 33 -28 53 -29 107 l-1 65 -144
158 c-141 153 -144 156 -157 133 -7 -13 -34 -37 -60 -52 -37 -22 -59 -28 -103
-27 -67 1 -108 22 -153 77 -28 35 -31 45 -31 111 0 62 4 78 27 113 52 79 162
106 248 60z m-1712 -54 c22 -28 141 -193 320 -447 50 -71 89 -133 86 -138 -3
-4 -12 -8 -20 -8 -24 0 -62 -30 -84 -65 -11 -18 -20 -36 -20 -40 0 -3 154 -5
343 -3 329 3 344 2 382 -18 41 -21 85 -87 85 -127 0 -19 -14 -19 -510 -16
-280 2 -510 7 -510 10 0 4 11 46 25 93 25 85 57 148 89 175 9 7 16 18 16 23 0
11 -161 242 -310 443 -53 72 -100 136 -105 144 -7 12 7 13 91 8 93 -5 100 -7
122 -34z m-367 -5 c-12 -18 -43 -73 -69 -121 -26 -49 -73 -136 -106 -195 -32
-59 -109 -199 -171 -312 -146 -266 -350 -632 -411 -740 -86 -149 -212 -250
-335 -266 -61 -8 -149 18 -193 57 -37 32 -86 120 -86 154 0 17 -11 24 -69 38
-115 30 -187 110 -198 222 -9 85 14 134 132 280 58 72 166 205 240 297 74 91
153 189 177 216 24 27 81 95 128 150 47 55 86 99 87 98 1 -1 -15 -42 -36 -92
-21 -49 -57 -145 -80 -214 -31 -90 -52 -135 -75 -160 -35 -38 -184 -215 -314
-374 -109 -133 -123 -183 -72 -249 42 -53 124 -45 198 18 51 44 66 45 59 3
-31 -185 -32 -198 -12 -236 27 -49 60 -65 111 -51 59 16 141 83 181 148 43 69
493 874 568 1016 18 34 50 69 98 107 40 32 115 98 167 147 52 50 97 90 98 91
2 0 -6 -15 -17 -32z m781 -15 c35 -37 408 -554 408 -565 0 -2 -50 -3 -111 -3
-106 0 -111 1 -129 25 -26 33 -384 552 -388 562 -2 4 41 8 95 8 95 0 100 -1
125 -27z m784 -695 c29 -14 64 -78 64 -117 0 -31 -1 -32 -37 -29 l-38 3 -6 57
c-4 32 -14 69 -23 82 -15 24 -15 25 1 20 10 -3 28 -10 39 -16z"/>
<path d="M3169 5706 c-110 -75 -55 -256 78 -256 72 0 143 68 143 138 0 46 -35
109 -70 127 -45 23 -109 19 -151 -9z"/>
<path d="M7130 5430 c-24 -24 -25 -48 -4 -78 26 -38 84 -24 99 25 4 17 -1 29
-19 48 -30 30 -49 32 -76 5z"/>
<path d="M5757 5429 c7 -7 15 -10 18 -7 3 3 -2 9 -12 12 -14 6 -15 5 -6 -5z"/>
<path d="M5750 5397 c0 -5 -8 -6 -17 -3 -10 4 -14 3 -9 -1 12 -12 53 -10 53 2
0 7 -6 12 -14 12 -7 0 -13 -5 -13 -10z"/>
<path d="M5710 5339 c0 -6 -6 -7 -12 -3 -9 5 -9 2 1 -9 7 -9 19 -17 25 -17 6
0 5 4 -3 9 -11 7 -10 10 5 13 18 3 18 4 2 10 -10 4 -18 3 -18 -3z"/>
<path d="M5360 4910 c-9 -6 -10 -10 -3 -10 6 0 15 5 18 10 8 12 4 12 -15 0z"/>
<path d="M5404 4912 c4 -3 14 -7 22 -8 9 -1 13 0 10 4 -4 3 -14 7 -22 8 -9 1
-13 0 -10 -4z"/>
<path d="M5358 4873 c7 -3 16 -2 19 1 4 3 -2 6 -13 5 -11 0 -14 -3 -6 -6z"/>
<path d="M5298 4853 c7 -3 16 -2 19 1 4 3 -2 6 -13 5 -11 0 -14 -3 -6 -6z"/>
<path d="M3964 6760 c-34 -13 -64 -59 -64 -96 0 -42 43 -92 85 -99 37 -7 90
23 107 60 33 73 -55 166 -128 135z"/>
<path d="M4802 6084 c10 -10 20 -16 22 -13 3 3 -5 11 -17 18 -21 13 -21 12 -5
-5z"/>
<path d="M5105 5989 c-4 -6 -5 -12 -2 -15 2 -3 7 2 10 11 7 17 1 20 -8 4z"/>
<path d="M5131 5968 c-8 -13 -9 -24 -3 -30 6 -6 12 -5 17 3 5 8 4 10 -3 5 -7
-4 -12 -3 -12 3 0 5 7 14 16 19 9 5 12 12 7 15 -5 3 -15 -4 -22 -15z"/>
<path d="M5210 5981 c0 -6 4 -13 10 -16 6 -3 7 1 4 9 -7 18 -14 21 -14 7z"/>
<path d="M5048 5961 c7 -4 15 -17 16 -27 2 -10 7 -17 12 -15 5 2 15 6 21 8 7
3 10 9 7 14 -3 5 -9 7 -14 4 -4 -3 -13 2 -20 10 -7 8 -18 15 -24 15 -7 0 -6
-4 2 -9z"/>
<path d="M5100 5910 c-12 -8 -9 -10 13 -10 15 0 27 5 27 10 0 13 -20 13 -40 0z"/>
<path d="M7070 6077 c-49 -25 -30 -107 25 -107 51 0 74 75 33 104 -27 19 -26
19 -58 3z"/>
<path d="M5090 5775 c0 -8 5 -15 10 -15 6 0 10 7 10 15 0 8 -4 15 -10 15 -5 0
-10 -7 -10 -15z"/>
<path d="M5088 5703 c7 -3 16 -2 19 1 4 3 -2 6 -13 5 -11 0 -14 -3 -6 -6z"/>
<path d="M6175 4145 c-30 -29 -31 -49 -5 -75 25 -25 62 -26 83 -2 29 32 21 69
-20 91 -29 15 -30 15 -58 -14z"/>
<path d="M6827 3682 c-46 -51 13 -124 69 -87 31 20 34 79 5 95 -29 15 -56 12
-74 -8z"/>
</g>
</svg>
