<?xml version="1.0" encoding="UTF-8" standalone="no"?>
<!-- Created with Inkscape (http://www.inkscape.org/) -->

<svg
   width="210mm"
   height="297mm"
   viewBox="0 0 210 297"
   version="1.1"
   id="svg1"
   inkscape:version="1.3.2 (091e20e, 2023-11-25, custom)"
   sodipodi:docname="RCG_LOGO_CLEAN.svg"
   xmlns:inkscape="http://www.inkscape.org/namespaces/inkscape"
   xmlns:sodipodi="http://sodipodi.sourceforge.net/DTD/sodipodi-0.dtd"
   xmlns="http://www.w3.org/2000/svg"
   xmlns:svg="http://www.w3.org/2000/svg">
  <sodipodi:namedview
     id="namedview1"
     pagecolor="#ffffff"
     bordercolor="#000000"
     borderopacity="0.25"
     inkscape:showpageshadow="2"
     inkscape:pageopacity="0.0"
     inkscape:pagecheckerboard="0"
     inkscape:deskcolor="#d1d1d1"
     inkscape:document-units="mm"
     inkscape:zoom="0.69219276"
     inkscape:cx="397.28818"
     inkscape:cy="561.25984"
     inkscape:window-width="1920"
     inkscape:window-height="991"
     inkscape:window-x="2391"
     inkscape:window-y="-9"
     inkscape:window-maximized="1"
     inkscape:current-layer="layer1" />
  <defs
     id="defs1" />
  <g
     inkscape:label="Layer 1"
     inkscape:groupmode="layer"
     id="layer1">
    <path
       d="m 137.4225,64.109519 c -7.7404,0.692345 -16.818,3.923289 -23.60692,8.410711 -6.53176,4.333568 -14.452175,12.513497 -19.003831,19.66773 -1.877241,2.923235 -5.503143,10.25696 -6.686062,13.51355 -0.514308,1.35905 -1.362925,4.12843 -1.877233,6.12854 -0.925762,3.56429 -0.977195,3.66686 -2.134398,4.69256 -2.777285,2.43603 -8.100413,7.97479 -10.620542,11.0006 -5.837441,7.0773 -12.497781,17.46248 -21.832541,34.15568 -1.362927,2.38476 -4.705955,8.28251 -7.457524,13.07764 -6.917496,12.05194 -12.806368,23.05253 -12.497781,23.3346 0.102862,0.10257 1.05434,-0.1795 2.160111,-0.61542 1.9801,-0.79492 2.468697,-0.84621 1.9801,-0.23078 -1.234349,1.64111 -10.183377,12.8212 -16.663708,20.82163 -5.065974,6.25675 -7.920405,9.92362 -12.5492159,16.05215 l -3.5744685,4.74385 2.6229908,0.0769 c 4.6030956,0.12821 8.9490306,-0.97442 11.4948766,-2.92324 0.951478,-0.71798 0.977194,-0.64105 0.488597,1.48727 -0.437166,1.74368 -0.41145,1.74368 1.877238,0.8462 1.87724,-0.718 3.343029,-1.5642 4.757387,-2.66682 0.565743,-0.43592 1.028623,-0.76927 1.080054,-0.74363 0.02572,0.0513 -0.102862,0.94877 -0.308586,1.97447 -0.18001,1.05133 -0.334303,1.94882 -0.282872,1.97446 0.02571,0.0256 0.797183,-0.10256 1.722945,-0.28206 5.37456,-1.12827 8.460432,-3.33352 13.96357,-9.94926 14.143578,-17.00092 17.435174,-20.87292 17.949486,-21.36013 0.334303,-0.30771 0.977194,-0.6667 1.388643,-0.79491 0.437165,-0.15386 3.831624,-1.61548 7.586101,-3.28224 3.754478,-1.66674 6.943212,-3.02579 7.071791,-3.02579 0.154294,0.0256 1.542935,0.79491 3.085871,1.74367 8.563296,5.20542 19.029541,8.84665 29.624371,10.30825 l 3.13731,0.43592 4.83453,3.94894 c 2.64871,2.17961 5.78601,4.7182 6.94322,5.66697 1.15719,0.92313 2.10868,1.76933 2.13438,1.8719 0,0.10257 -0.23144,0.25642 -0.51431,0.33335 -0.84861,0.25642 -2.05725,1.41034 -2.57156,2.46166 -0.95148,1.82063 -0.43716,4.30793 1.02862,5.10285 0.72004,0.38463 0.92577,0.1795 1.10578,-0.97441 0.23144,-1.89754 1.56865,-3.07709 3.85733,-3.48736 0.87434,-0.15386 1.08006,-0.10258 1.8001,0.58977 2.00582,1.97446 4.39737,2.46167 10.85199,2.20525 2.62298,-0.10257 4.75738,-0.25643 4.75738,-0.359 0,-0.4872 -4.55166,-2.64117 -6.4289,-3.00016 -0.41145,-0.10256 -0.77147,-0.23078 -0.77147,-0.33335 0.0257,-0.30771 2.4687,-1.74368 3.70305,-2.15397 2.52012,-0.87184 5.06597,-0.35898 7.56038,1.46162 2.05725,1.51291 3.00873,3.35916 2.803,5.41056 l -0.15429,1.41033 h 0.87432 c 1.90297,0 3.42019,-2.38475 3.13731,-4.97463 -0.30858,-2.94888 -2.21154,-5.48748 -5.14312,-6.82089 l -1.56865,-0.69233 0.90004,-0.46157 c 0.54004,-0.3077 1.6458,-0.51286 2.93158,-0.58978 1.69723,-0.0769 2.34013,0 3.57447,0.46157 2.95729,1.12826 5.06598,4.17971 4.29451,6.25674 -0.1543,0.38464 -0.28288,0.76927 -0.28288,0.8462 0,0.33335 2.36584,-0.15385 2.82872,-0.56414 0.84862,-0.76927 1.36293,-2.53859 1.20863,-4.1797 -0.46288,-5.33362 -6.68606,-8.89792 -13.26924,-7.66709 -2.39155,0.46157 -5.22028,1.74369 -7.48324,3.41044 l -1.46579,1.07698 -1.54293,-1.30776 c -6.60891,-5.69261 -8.30614,-7.17986 -8.30614,-7.38502 0,-0.1282 0.20572,-0.23077 0.43716,-0.23077 0.69432,0 6.84035,-2.15397 10.62054,-3.71815 6.32603,-2.61553 12.60064,-6.61574 17.9752,-11.43652 3.39446,-3.05145 5.68316,-5.53876 8.97474,-9.79539 4.42309,-5.71826 6.96894,-10.48775 9.43763,-17.64199 2.9573,-8.56456 4.19164,-16.51371 3.85734,-24.33465 -0.30858,-6.89781 -1.18291,-11.12881 -4.11449,-20.00108 -2.08296,-6.33368 -2.54584,-8.84664 -2.36584,-12.94942 0.23144,-5.00027 1.72294,-8.97485 4.47452,-11.846796 1.20863,-1.256478 1.28577,-1.307763 3.06015,-1.461617 3.57447,-0.30771 10.02908,-2.256533 14.99219,-4.538708 l 2.16012,-1.000054 -0.74576,-0.794914 c -2.18582,-2.282175 -7.50895,-5.128483 -11.67488,-6.256749 -1.3372,-0.358994 -3.70304,-0.769272 -5.22027,-0.94877 l -2.77728,-0.307709 -2.00581,-2.359101 C 171.2385,71.622706 160.43796,65.724951 149.3031,64.391546 145.98579,64.00691 140.17407,63.853055 137.4225,64.109479 Z m 10.69769,5.00027 c 12.08632,1.718042 21.9354,7.513227 29.57293,17.359913 0.51432,0.692345 -0.0771,0.564133 -0.95147,-0.179497 -0.90005,-0.769272 -1.00291,-0.769272 -1.15721,-0.205139 -0.10286,0.384636 -0.12857,0.384636 -0.15429,-0.05129 -0.0257,-0.282066 -0.1543,-0.692345 -0.30859,-0.897484 -0.23144,-0.307709 -0.25715,-0.282067 -0.15429,0.153854 0.0514,0.307709 0.0257,0.717987 -0.10286,0.897484 -0.1543,0.256425 -0.23144,0.07693 -0.23144,-0.512847 0,-0.487207 -0.0771,-0.794915 -0.18002,-0.692345 -0.20572,0.205138 -0.23143,0.33335 -0.30858,1.051338 0,0.205139 -0.15429,0.384636 -0.30858,0.384636 -0.18001,0 -0.23145,-0.282066 -0.12858,-0.769272 0.10286,-0.589775 0.0514,-0.769272 -0.25716,-0.769272 -0.20572,0 -0.36001,0.153854 -0.3343,0.307708 0.0771,0.717988 -0.0514,1.230836 -0.30859,1.230836 -0.15429,0 -0.23144,-0.384636 -0.20573,-0.897484 0.0514,-0.487206 -0.0257,-0.897485 -0.15429,-0.897485 -0.10287,0 -0.25716,0.487206 -0.30859,1.076981 -0.0514,0.615418 -0.18,1.282121 -0.25716,1.487261 -0.10286,0.205139 -0.18,0.589774 -0.18,0.820556 -0.0257,0.256425 -0.12858,0.435922 -0.28287,0.384636 -0.12858,-0.02565 -0.23145,-0.307708 -0.18002,-0.641059 0.0257,-0.307709 -0.0257,-0.564133 -0.18,-0.564133 -0.12858,0 -0.30859,0.564133 -0.41145,1.230835 -0.25716,1.897538 -0.64288,2.23089 -0.59146,0.512848 0.0514,-0.871841 -0.0514,-1.461617 -0.18,-1.410332 -0.28288,0.05129 -0.30859,0.179496 -0.36003,1.256478 -0.0257,0.589776 -0.12858,0.692345 -0.59146,0.64106 -0.36002,-0.02565 -0.61717,0.10257 -0.61717,0.333352 -0.0257,0.205139 -0.0514,0.538491 -0.0771,0.74363 -0.0514,0.53849 -0.41144,0.07692 -0.41144,-0.512849 0,-0.256424 -0.10288,-0.461563 -0.25716,-0.410278 -0.25716,0.05129 -0.28288,0.153854 -0.36002,0.897484 -0.0257,0.20514 -0.15429,0.256424 -0.33431,0.128213 -0.46287,-0.282068 -1.72294,-0.333352 -1.87723,-0.07692 -0.0771,0.128211 0,0.512847 0.15429,0.871841 0.36003,0.769272 0.10287,1.076981 -5.52885,7.077306 l -3.49732,3.718147 v 5.12848 5.12849 l -5.29742,5.43619 c -3.57446,3.71815 -5.4517,5.46183 -5.83744,5.46183 -0.51431,0 -0.4886,-0.0256 0.1543,-0.71799 0.74575,-0.76927 0.95147,-1.35904 0.30859,-0.82055 -0.23145,0.20514 -0.38574,0.20514 -0.38574,0.0513 0,-0.15386 0.59145,-0.8462 1.31149,-1.56419 0.72004,-0.71799 1.23435,-1.41033 1.13149,-1.56419 -0.0771,-0.12821 -0.0257,-0.25642 0.12858,-0.25642 0.46288,0 2.54584,-1.79497 2.70014,-2.33346 0.10286,-0.28207 0.25715,-0.43592 0.38573,-0.35899 0.28287,0.17949 0.84861,-0.56414 0.64289,-0.87185 -0.0771,-0.15385 0,-0.20514 0.20572,-0.12821 0.43716,0.15386 1.05435,-0.53849 0.8229,-0.89748 -0.0771,-0.15386 0,-0.20514 0.20573,-0.12821 0.46288,0.15385 1.05434,-0.5385 0.79718,-0.94877 -0.12858,-0.20514 -0.0771,-0.23079 0.12858,-0.10257 0.20573,0.10257 0.51432,-0.0256 0.8229,-0.359 0.46288,-0.4872 0.51432,-0.89748 0.4886,-5.41055 -0.0257,-2.79502 -0.12858,-4.87206 -0.28287,-4.87206 -0.12858,0 -0.23145,0.12822 -0.23145,0.30771 0,0.23079 -0.0771,0.23079 -0.30858,0 -0.46289,-0.46156 -0.79719,-0.35899 -0.6429,0.20514 0.0771,0.28207 0.0514,0.51285 -0.0514,0.51285 -0.30858,0 -0.23144,2.41039 0.0771,2.61553 0.18002,0.12821 0.18002,0.20514 -0.0257,0.20514 -0.20572,0 -0.3343,0.33335 -0.3343,0.79491 0,0.41028 -0.10286,0.71799 -0.23144,0.64106 -0.12858,-0.0769 -0.18,-0.6667 -0.12858,-1.30776 0.10287,-0.94877 0.0257,-1.15391 -0.30858,-1.15391 -0.28287,0 -0.38574,0.15386 -0.28287,0.51285 0.0771,0.28207 0.0514,0.51285 -0.0514,0.51285 -0.0771,0 -0.1543,1.02569 -0.1543,2.25653 0,1.23083 -0.0771,2.58988 -0.18001,3.0258 -0.0771,0.41028 -0.15429,-0.58977 -0.15429,-2.20524 0,-2.48732 -0.0514,-2.94888 -0.38573,-3.02581 -0.36002,-0.0769 -0.38573,0.12821 -0.25715,1.23084 l 0.15428,1.30776 -0.69432,-0.1795 c -0.61717,-0.15385 -0.6686,-0.10257 -0.6686,0.64106 0,0.56414 0.18001,0.89749 0.64289,1.2052 0.36002,0.23078 0.61717,0.51285 0.59146,0.64106 -0.18002,0.4872 -7.99755,8.17993 -8.33186,8.17993 -0.20573,0 -0.3343,0.12821 -0.30859,0.28206 0.0514,0.15386 -0.3343,0.43593 -0.8229,0.61542 -0.48859,0.1795 -0.87433,0.43592 -0.84861,0.56413 0.0257,0.12822 -0.3343,0.46157 -0.77147,0.71799 l -0.82289,0.48721 0.87432,-1.0257 c 1.26007,-1.46162 3.62591,-3.97457 6.48033,-6.89781 l 2.52013,-2.56424 -5.70885,-5.84647 c -5.68316,-5.820825 -5.73459,-5.846467 -6.19747,-5.33362 -0.25715,0.28207 -0.61718,0.46156 -0.77147,0.38464 -0.15429,-0.10257 2.16011,2.28217 5.14312,5.25669 l 5.42599,5.43619 -2.82871,2.74374 c -1.54294,1.5129 -2.93158,2.69245 -3.11159,2.66681 -0.15429,-0.0513 -0.20573,0 -0.0771,0.10257 0.23145,0.25643 -0.59145,1.15391 -0.90004,0.97441 -0.23144,-0.15385 -1.95438,1.00006 -2.31441,1.53855 -0.12857,0.17949 -0.20571,0.17949 -0.20571,-0.0256 0,-0.1795 1.69722,-2.05139 3.75448,-4.15407 l 3.75446,-3.872 -6.53175,-6.46189 c -9.28333,-9.17998 -10.67198,-10.718524 -9.69479,-10.718524 0.28288,0 2.52014,1.871895 4.98882,4.179712 1.51723,1.410333 1.62009,1.435976 2.00583,1.000055 0.25716,-0.256424 0.43716,-0.589776 0.43716,-0.717988 0,-0.128212 -1.23435,-1.461617 -2.72585,-2.923235 -1.4915,-1.48726 -2.82872,-2.948877 -2.9573,-3.256586 -0.10286,-0.333352 -0.23144,-1.564188 -0.25715,-2.76938 -0.0257,-1.564188 -0.12857,-2.179605 -0.36002,-2.179605 -0.23144,0 -0.30859,0.358992 -0.23144,1.282119 0.0514,0.692345 -0.0257,1.282121 -0.12858,1.282121 -0.3343,0 -0.46288,-0.512848 -0.41146,-1.615472 0.0257,-0.64106 -0.0514,-0.948768 -0.30858,-0.948768 -0.23143,0 -0.28287,0.179496 -0.18001,0.615417 0.12858,0.512848 0.0514,0.641061 -0.46288,0.717988 -0.41144,0.05129 -0.56574,0.205139 -0.51431,0.564132 0.0771,0.333352 -0.0257,0.435922 -0.30858,0.333352 -0.46288,-0.179497 -1.02863,0.461563 -0.77148,0.871843 0.10287,0.179495 0.0771,0.230781 -0.0771,0.153854 -0.15429,-0.10257 -0.41145,0 -0.59146,0.205138 -0.30859,0.358994 -1.28579,0.538491 -1.28579,0.256425 0,-0.256425 1.23435,-2.538599 2.13441,-3.923289 1.10576,-1.743684 4.4745,-5.154125 6.53175,-6.615743 1.87724,-1.359047 5.16885,-2.923234 7.7404,-3.666864 7.07179,-2.102678 17.07516,-1.666756 23.68407,1.025697 2.08297,0.846199 0.28287,-0.230782 -2.67442,-1.615472 -7.56039,-3.513011 -17.56375,-4.179713 -24.06981,-1.58983 -2.10868,0.820557 -4.01163,1.743684 -4.98882,2.410387 -0.41145,0.282066 -1.10578,0.512848 -1.54294,0.53849 -0.6686,0.02565 -0.69432,0.05129 -0.20573,0.179498 0.56575,0.179495 0.56575,0.179495 -0.18,0.615418 -0.74575,0.410277 -0.77147,0.410277 -0.77147,-0.05129 0,-0.282067 -0.12858,-0.512848 -0.28286,-0.512848 -0.1543,0 -0.20574,0.179496 -0.12858,0.410278 0.20571,0.538491 -0.28288,1.359048 -0.95149,1.615472 -1.26006,0.487206 -1.72294,0.564133 -1.72294,0.333351 0,-0.128211 0.25716,-0.333351 0.59146,-0.435921 0.30858,-0.10257 0.64288,-0.205139 0.77146,-0.256424 0.10287,-0.02565 0.36002,-0.07692 0.56574,-0.102569 0.20573,0 0.38574,-0.128212 0.38574,-0.256424 0,-0.128212 -0.41145,-0.128212 -0.95148,0.02565 -0.54002,0.153854 -1.23434,0.256423 -1.54294,0.256423 -0.3343,0 -0.59145,0.102571 -0.59145,0.230782 0,0.128213 -0.18001,0.230782 -0.41145,0.230782 -0.25716,0 -0.36002,-0.153854 -0.28287,-0.384636 0.10287,-0.205139 0.0514,-0.435921 -0.0771,-0.512848 -0.15429,-0.10257 -0.25716,-0.282066 -0.25716,-0.410279 0,-0.358993 0.64289,-0.128212 0.66861,0.230782 0.0771,0.589776 0.10286,0.615417 0.43717,0.358994 0.15429,-0.128213 0.69432,-0.333351 1.1572,-0.435922 0.43716,-0.07692 0.8229,-0.282066 0.8229,-0.410278 0,-0.153854 -0.23145,-0.179496 -0.56574,-0.07692 -0.9772,0.307709 -1.62009,0.256424 -1.54294,-0.128211 0.0514,-0.205139 -0.0771,-0.461564 -0.25716,-0.589776 -0.25716,-0.153854 -0.18,-0.256424 0.25716,-0.358994 0.36001,-0.102569 0.56574,-0.358994 0.56574,-0.692345 0,-0.512848 0,-0.538491 0.41145,-0.02565 0.36001,0.461564 0.38573,0.461564 0.20572,-0.153854 -0.0771,-0.358994 -0.20572,-0.692345 -0.25716,-0.743631 -0.10285,-0.102568 -2.85442,2.43603 -8.79472,8.128645 -3.75449,3.564296 -4.1145,3.846362 -4.29452,3.333514 -0.10286,-0.333352 -0.20571,-0.666703 -0.23143,-0.769272 -0.0257,-0.10257 1.10577,-1.359048 2.49441,-2.769381 1.6458,-1.666757 2.49441,-2.743738 2.44298,-3.025805 -0.0514,-0.230781 -0.20573,-0.410278 -0.36001,-0.384635 -0.72004,0.10257 -2.4687,0.256424 -2.08297,0.153854 0.23144,-0.05129 0.43716,-0.230782 0.43716,-0.358994 0,-0.153854 0.12858,-0.179497 0.25716,-0.10257 0.15429,0.07693 0.36002,-0.10257 0.4886,-0.43592 0.20572,-0.461564 0.25716,-0.487207 0.25716,-0.128213 0.0257,0.256425 0.18001,0.435921 0.36001,0.358994 0.1543,-0.05129 0.28288,-0.333351 0.25716,-0.589776 -0.0257,-0.256423 0.15429,-0.05129 0.38573,0.461564 0.51431,1.128266 0.8229,1.256478 0.8229,0.333351 0,-0.410278 -0.15429,-0.64106 -0.38573,-0.64106 -0.20573,0 -0.38574,-0.128212 -0.38574,-0.256424 0,-0.153854 0.18001,-0.256424 0.38574,-0.256424 0.20572,0 0.38573,-0.179497 0.38573,-0.384636 0,-0.307709 -0.20572,-0.358993 -0.8229,-0.256425 -0.43716,0.07692 -0.92576,0.230782 -1.08005,0.307709 -0.41146,0.256425 -1.18292,0.282068 -1.18292,0.02565 0,-0.10257 0.18001,-0.20514 0.38573,-0.20514 0.20573,0 0.38573,-0.128212 0.38573,-0.256424 0,-0.153854 0.1543,-0.256425 0.3343,-0.20514 0.61719,0.128213 1.72296,-0.33335 1.72296,-0.692345 0,-0.43592 -0.66861,-0.512848 -0.90006,-0.128212 -0.10285,0.153855 -0.25715,0.205139 -0.38572,0.128212 -0.12858,-0.07692 -0.28287,-0.02565 -0.38574,0.128213 -0.0771,0.128212 -0.28287,0.256424 -0.41144,0.256424 -2.00582,0 8.53758,-5.410549 12.96066,-6.641385 2.44298,-0.692345 6.2746,-1.410332 8.66615,-1.641114 2.34012,-0.230782 6.81463,-0.128213 9.23191,0.205139 z M 116.0014,78.46927 c 0,0.128212 -0.10287,0.256424 -0.25715,0.256424 -0.12858,0 -0.25716,-0.128212 -0.25716,-0.256424 0,-0.153855 0.12858,-0.256425 0.25716,-0.256425 0.15428,0 0.25715,0.10257 0.25715,0.256425 z m 8.66616,0.564133 c -0.0771,0.205139 -0.15429,0.128212 -0.15429,-0.153854 -0.0257,-0.282067 0.0514,-0.435922 0.12858,-0.333352 0.0771,0.07692 0.10285,0.307709 0.0257,0.487206 z m 0.59145,0.846199 c 0,0.20514 -0.15428,0.384637 -0.36001,0.384637 -0.43717,0 -0.72004,-0.358995 -0.4886,-0.615418 0.30859,-0.307709 0.84861,-0.153854 0.84861,0.230781 z m -9.90049,0.384637 c -0.0771,0.128212 -0.3086,0.256423 -0.46289,0.256423 -0.18,0 -0.1543,-0.102568 0.0771,-0.256423 0.48859,-0.307709 0.59146,-0.307709 0.38574,0 z m 8.53757,0.564132 c -0.41145,0.256425 -0.54002,0.05128 -0.3343,-0.487205 0.15429,-0.384636 0.23144,-0.384636 0.41145,-0.07692 0.15429,0.230782 0.12857,0.43592 -0.0771,0.564132 z m 2.90586,-0.410277 c 0,0.230781 -0.12858,0.358993 -0.30858,0.307708 -0.46288,-0.153854 -0.54003,-0.717988 -0.10286,-0.717988 0.23144,0 0.41144,0.179498 0.41144,0.41028 z m -12.08632,0.641059 c 0.23144,0.410278 0.20571,0.64106 -0.1543,1.025697 -0.72004,0.794915 -1.90296,0.461563 -1.90296,-0.538491 0,-1.051338 1.56866,-1.410333 2.05726,-0.487206 z m 11.18628,-0.282066 c 0.0771,0.128211 -0.0771,0.256424 -0.36002,0.256424 -0.30858,0 -0.54003,-0.128213 -0.54003,-0.256424 0,-0.153855 0.15429,-0.256425 0.36003,-0.256425 0.20571,0 0.46287,0.10257 0.54002,0.256425 z m -8.61473,0.512848 c 0,0.128212 -0.20572,0.256424 -0.43717,0.256424 -0.38573,0 -0.41144,-0.05129 -0.0771,-0.256424 0.4886,-0.307709 0.51431,-0.307709 0.51431,0 z m 7.45752,0 c 0,0.128212 -0.18001,0.256424 -0.41145,0.256424 -0.20572,0 -0.30858,-0.128212 -0.23144,-0.256424 0.0771,-0.153855 0.25716,-0.256424 0.41146,-0.256424 0.12858,0 0.23143,0.102569 0.23143,0.256424 z m 61.38313,5.025912 c 2.36584,0.41028 7.4061,2.077036 9.48906,3.128375 l 1.36293,0.692345 -6.22318,0.05129 c -5.58028,0.05129 -11.0577,0.307709 -15.09505,0.74363 l -1.41436,0.153854 1.54294,-0.897484 c 0.84861,-0.512848 2.52013,-1.718042 3.72875,-2.692453 2.46871,-2.000108 2.23726,-1.948824 6.60891,-1.179552 z m -13.16637,0.589776 c 0.0771,0.128212 0.0257,0.307709 -0.12858,0.410278 -0.12858,0.07693 -0.25716,-0.02565 -0.25716,-0.230782 0,-0.461563 0.15429,-0.53849 0.38574,-0.179496 z m 1.1572,0.128212 c 0,0.07692 -0.10287,0.205139 -0.25716,0.282066 -0.12858,0.07693 -0.25716,0.02565 -0.25716,-0.102569 0,-0.153854 0.12858,-0.282067 0.25716,-0.282067 0.15429,0 0.25716,0.05129 0.25716,0.10257 z m -54.67136,2.23089 c 0.87432,0.692345 0.90004,1.820611 0.0257,2.66681 -1.74866,1.769328 -4.11449,-0.794914 -2.39155,-2.615526 0.69432,-0.743629 1.46578,-0.743629 2.36584,-0.05129 z m 9.15475,0 c 0,0.128211 -0.10287,0.230781 -0.25716,0.230781 -0.12858,0 -0.25716,-0.179497 -0.25716,-0.410278 0,-0.205139 0.12858,-0.307709 0.25716,-0.230782 0.15429,0.07692 0.25716,0.256425 0.25716,0.410279 z m 42.94505,-0.02565 c 0,0.128212 -0.12858,0.256423 -0.28287,0.256423 -0.12858,0 -0.18002,-0.128211 -0.10287,-0.256423 0.0771,-0.153855 0.20572,-0.256424 0.28287,-0.256424 0.0514,0 0.10287,0.102569 0.10287,0.256424 z m -42.94505,1.000054 c 0,0.282067 -0.10287,0.564132 -0.20574,0.641059 -0.10285,0.05129 -0.20571,-0.153854 -0.20571,-0.512847 0,-0.333352 0.10286,-0.615418 0.20571,-0.615418 0.10287,0 0.20574,0.230781 0.20574,0.487206 z m -13.91214,0.128212 c 0.15429,0.179497 0.23143,0.53849 0.12858,0.769272 -0.12858,0.358993 -0.87433,0.410279 -6.55749,0.410279 -5.2717,0 -6.40318,-0.05129 -6.40318,-0.358994 0,-0.948769 0.77147,-1.076982 7.61182,-1.128266 3.90877,-0.05129 4.98883,0.02565 5.22027,0.307709 z m 12.75494,-0.128212 c 0.0771,0.128212 0.0257,0.307709 -0.12858,0.410278 -0.12858,0.07692 -0.25716,-0.02565 -0.25716,-0.230782 0,-0.461564 0.1543,-0.538491 0.38574,-0.179496 z m 2.18582,0.179496 c 0,0.20514 -0.12858,0.307709 -0.25716,0.230782 -0.15429,-0.102569 -0.20572,-0.282066 -0.12858,-0.410278 0.23145,-0.358995 0.38574,-0.282068 0.38574,0.179496 z m 39.85918,-0.307709 c 0,0.282068 -0.4886,0.384637 -0.64289,0.153855 -0.0771,-0.128212 0.0257,-0.256424 0.23144,-0.256424 0.23144,0 0.41145,0.05129 0.41145,0.102569 z m -3.39446,0.974413 c -0.0514,0.153854 -0.25716,0.358993 -0.41145,0.410277 -0.18,0.05129 -0.25716,-0.05127 -0.1543,-0.307708 0.18002,-0.461564 0.72004,-0.564133 0.56575,-0.102569 z m -40.11634,3.974573 c 0.79719,0.692345 3.80591,3.538653 6.71177,6.359318 2.93159,2.84631 6.32605,6.12854 7.5604,7.33373 l 2.26296,2.1796 -2.85442,2.79503 c -1.56866,1.56418 -3.00873,2.84631 -3.21445,2.89759 -0.23145,0.0513 -0.33431,0.20514 -0.25716,0.33335 0.10286,0.12821 0.0514,0.23078 -0.10287,0.23078 -0.46287,0 -0.18001,-1.12826 0.48861,-1.92318 0.36001,-0.43592 1.38864,-1.53854 2.34011,-2.48731 l 1.67151,-1.74369 -7.0975,-7.10294 c -7.04608,-7.102951 -9.25762,-9.436411 -9.25762,-9.846689 0,-0.410279 0.28288,-0.256425 1.74866,0.974411 z m 40.65637,-0.153852 c -0.56574,0.74363 -1.51722,1.79497 -5.96603,6.56446 l -1.46578,1.58983 v 5.71826 5.71825 l -1.67152,1.64112 -1.69722,1.64111 2.72585,2.74374 c 2.62299,2.66681 3.11158,3.46173 2.34012,3.74379 -0.54003,0.20514 -0.77147,0.0257 -3.85734,-3.17966 -3.26588,-3.33351 -3.21445,-3.05144 -0.69433,-5.76954 l 1.56866,-1.66676 v -5.61568 -5.61569 l 3.67733,-3.641225 c 3.52304,-3.513011 5.29742,-5.051555 5.52885,-4.795132 0.0514,0.05129 -0.15429,0.461564 -0.48859,0.923127 z m -44.20512,1.256479 v 0.769272 h -7.40609 -7.4061 l -6.2746,6.410599 c -6.403182,6.5901 -6.634623,6.74396 -7.560385,5.87212 -0.128578,-0.12822 1.337209,-1.82062 3.471607,-4.00022 4.191638,-4.28228 4.165928,-4.10279 0.565742,-4.15407 -1.028623,-0.0256 -1.877241,-0.0769 -1.877241,-0.15386 0,-0.10257 0.180006,-0.4872 0.385737,-0.89748 l 0.411446,-0.769271 h 3.08587 3.085884 l 2.03152,-1.923182 2.03154,-1.92318 h 7.71468 7.74039 z m 45.51661,1.410332 c 0,0.410279 -0.95148,1.564188 -3.24017,3.974579 l -1.33721,1.41033 -0.18,6.66702 c -0.10287,3.66687 -0.23144,6.71832 -0.28288,6.79524 -0.0771,0.0513 -0.3343,-0.0256 -0.56574,-0.15385 -0.38574,-0.25643 -0.43716,-1.00006 -0.51432,-6.89781 l -0.0514,-6.5901 2.803,-2.795022 c 2.77729,-2.743738 3.36874,-3.179659 3.36874,-2.410387 z m 5.14313,1.153908 c -0.20573,0.128213 -0.56575,0.230782 -0.77148,0.230782 -0.25715,0 -0.20572,-0.07692 0.12858,-0.230782 0.69433,-0.307708 1.10577,-0.307708 0.6429,0 z m -39.13915,8.000431 c 2.28869,2.33346 4.16593,4.35921 4.16593,4.51307 0,0.1795 -0.23144,0.30771 -0.54003,0.30771 -0.56574,0 -11.62345,-10.97496 -11.39201,-11.30831 0.0514,-0.10257 0,-0.25642 -0.15429,-0.35899 -0.12858,-0.07692 -0.25716,-0.33335 -0.25716,-0.564132 0,-0.512849 2.90586,2.128322 8.17756,7.410652 z m 37.85336,-7.154229 c 0,0.05129 -0.54002,0.666699 -1.18292,1.359049 -0.64289,0.69234 -1.62008,2.12832 -2.13439,3.17966 l -0.92576,1.92318 -0.0771,6.23111 -0.0771,6.2311 0.90004,1.12827 c 0.51432,0.61541 0.92577,1.23083 0.92577,1.35905 0,0.69234 -0.77146,0.38463 -1.85152,-0.74364 l -1.23435,-1.25647 v -7.66708 -7.64144 l 0.77147,-1.00006 c 1.18291,-1.5129 3.34302,-3.154013 4.19163,-3.179656 0.38574,0 0.69433,0.02565 0.69433,0.07692 z m -54.05419,1.359049 c 0.8229,0.94877 0.74576,1.97446 -0.25715,2.79502 -0.6429,0.53849 -0.97719,0.64106 -1.59438,0.53849 -1.02862,-0.20514 -1.69722,-1.02569 -1.69722,-2.05139 0,-2.02575 2.18583,-2.795023 3.54875,-1.28212 z m 4.88596,0.0256 c 0.41146,0.38464 0.56574,1.00005 0.79719,3.15402 0.15429,1.61547 0.59146,3.71815 1.08006,5.25669 1.02862,3.2053 1.05433,3.58994 0.48859,4.10279 -0.43717,0.41028 -0.48859,0.38463 -0.84861,-0.30771 -0.64289,-1.23084 -1.67152,-4.46178 -2.08297,-6.53882 -0.43716,-2.12832 -0.56574,-6.10289 -0.18,-6.10289 0.12857,0 0.46287,0.20514 0.74574,0.43592 z m -9.51476,0.76927 c -0.0771,0.71799 -0.0771,0.71799 -2.36584,0.79492 l -2.28869,0.0769 -4.57738,4.33356 c -4.320215,4.12843 -5.323128,4.82078 -5.760291,4.10279 -0.102861,-0.15385 -0.308585,-0.20514 -0.462881,-0.10257 -0.180006,0.0769 1.954385,-2.10268 4.731672,-4.87206 l 5.06597,-5.02591 h 2.88015 2.85443 z m 41.19638,1.97447 c 0,0.4872 -0.10286,0.97441 -0.25716,1.05134 -0.15428,0.10257 -0.23143,-0.25643 -0.20571,-0.87185 0.0514,-1.28212 0.46287,-1.41033 0.46287,-0.17949 z m 0,1.94882 c 0,0.12821 -0.10286,0.25643 -0.25716,0.25643 -0.12857,0 -0.25715,-0.12822 -0.25715,-0.25643 0,-0.15385 0.12858,-0.25642 0.25715,-0.25642 0.1543,0 0.25716,0.10257 0.25716,0.25642 z m -42.07072,1.05134 c 1.08006,0.8462 0.90005,2.5386 -0.38573,3.17966 -1.31149,0.69234 -2.54584,-0.23079 -2.54584,-1.89754 0,-0.82056 0.97719,-1.82061 1.80009,-1.82061 0.25715,0 0.74575,0.23078 1.13148,0.53849 z m 42.07072,-0.0256 c 0,0.12821 -0.10286,0.25642 -0.25716,0.25642 -0.12857,0 -0.25715,-0.12821 -0.25715,-0.25642 0,-0.15386 0.12858,-0.25643 0.25715,-0.25643 0.1543,0 0.25716,0.10257 0.25716,0.25643 z m -37.33905,0.6667 c 0.66861,0.46156 0.77147,1.66676 0.18001,2.15396 -0.87433,0.71799 -2.44297,0.10257 -2.44297,-0.94877 0,-0.38463 1.13148,-1.61547 1.46578,-1.61547 0.12858,0 0.4886,0.1795 0.79718,0.41028 z m -9.2319,0.58978 c 0.23145,0.15385 0.25716,0.35899 0.12858,0.61541 -0.12858,0.23079 -3.00872,3.17966 -6.37747,6.56446 l -6.120309,6.17982 h -1.440076 c -1.20863,0 -1.542931,0.10257 -2.160108,0.69235 -0.540026,0.51285 -1.002907,0.71799 -1.748662,0.71799 -2.72585,0 -3.574467,-3.71815 -1.105768,-4.87206 1.465787,-0.69235 2.777285,-0.12822 3.368738,1.41033 0.23144,0.58978 0.385736,0.64106 1.26007,0.56413 0.951472,-0.10257 1.465787,-0.53849 7.046075,-6.10289 3.31731,-3.30787 6.19745,-6.00033 6.40318,-6.00033 0.20573,0 0.54003,0.10257 0.74575,0.23079 z m 45.28517,0.15385 c 0,0.20514 -0.10286,0.38464 -0.25715,0.38464 -0.12858,0 -0.18001,-0.1795 -0.10287,-0.38464 0.10287,-0.20514 0.20574,-0.38464 0.25716,-0.38464 0.0514,0 0.10286,0.1795 0.10286,0.38464 z m 1.28578,-0.12821 c 0,0.12821 -0.12858,0.25642 -0.28286,0.25642 -0.12858,0 -0.18001,-0.12821 -0.10287,-0.25642 0.0771,-0.15386 0.20573,-0.25643 0.28287,-0.25643 0.0514,0 0.10286,0.10257 0.10286,0.25643 z m -3.57446,1.71804 c -0.23144,0.41028 -0.25716,0.35899 -0.28287,-0.30771 0,-0.53849 0.0771,-0.6667 0.28287,-0.46156 0.20572,0.20514 0.20572,0.41028 0,0.76927 z m 2.28868,-0.43592 c 0,0.12821 -0.12858,0.25642 -0.28286,0.25642 -0.12858,0 -0.18001,-0.12821 -0.10287,-0.25642 0.0771,-0.15386 0.20573,-0.25643 0.28287,-0.25643 0.0514,0 0.10286,0.10257 0.10286,0.25643 z m -34.71605,3.58994 c 1.08005,0.53849 2.16011,1.94882 2.44297,3.12837 0.36003,1.38469 -0.90004,3.64123 -2.46869,4.43614 -0.92576,0.48721 -2.88014,0.48721 -3.83162,0 -2.05725,-1.05134 -2.88014,-3.79508 -1.77438,-5.76954 1.18292,-2.07704 3.57447,-2.84631 5.63172,-1.79497 z m 34.4589,0 c 0,0.12821 -0.0514,0.25642 -0.10287,0.25642 -0.0771,0 -0.20572,-0.12821 -0.28287,-0.25642 -0.0771,-0.15386 -0.0257,-0.25642 0.10287,-0.25642 0.15429,0 0.28287,0.10256 0.28287,0.25642 z m -44.28226,9.92361 0.0514,9.51333 -2.90587,2.92324 c -1.59436,1.58984 -5.06597,5.10285 -7.688957,7.7953 l -4.783105,4.89771 -4.34594,0.12821 -4.320216,0.1282 -6.043168,2.94889 c -9.874789,4.82077 -19.029543,9.02613 -19.158121,8.87227 -0.05143,-0.0513 -0.128577,-0.30771 -0.23144,-0.61541 -0.180009,-0.56413 0.951476,-1.15391 12.394918,-6.51318 2.442983,-1.12827 6.300322,-3.00016 8.563292,-4.10279 l 4.140217,-2.05138 h 4.037348 4.011632 l 1.28578,-1.23085 c 0.720038,-0.6667 4.011632,-4.00022 7.32895,-7.43629 l 6.04316,-6.20548 v -1.23083 c 0,-0.6667 0.0514,-4.87206 0.0771,-9.35948 l 0.0514,-8.15429 0.72004,0.0769 0.69432,0.0769 z m 54.31134,-2.71809 c 3.2916,3.30787 3.85735,4.20535 2.67442,4.20535 -0.72004,0 -7.14892,-6.64138 -6.94321,-7.17987 0.0771,-0.20514 0.30859,-0.38464 0.54003,-0.38464 0.20572,0 1.87724,1.51291 3.72876,3.35916 z m -9.5662,2.82066 c 0.0514,2.94888 0,3.82073 -0.28287,4.05151 -0.28288,0.20513 -0.84862,0.20513 -2.34012,-0.0257 -2.70014,-0.41029 -2.49441,-0.76927 0.82289,-1.38469 0.54003,-0.10257 0.56575,-0.20514 0.56575,-3.15402 0,-1.66676 0.0771,-3.10273 0.18001,-3.2053 0.10286,-0.10257 0.36002,-0.12822 0.59146,-0.10257 0.30859,0.0769 0.38573,0.69234 0.46288,3.82072 z m -49.88826,-1.82061 c 0.97719,0.58978 1.3372,1.38469 1.3372,2.92324 0,2.17961 -2.57155,3.46172 -4.731665,2.33346 -0.59146,-0.30771 -2.211542,-0.38463 -9.129037,-0.41028 -4.603091,-0.0257 -8.177558,-0.0769 -7.920401,-0.15386 0.23144,-0.0512 0.437163,-0.3077 0.437163,-0.56413 0,-0.38464 0.334303,-0.48721 2.365832,-0.64105 1.28578,-0.0769 4.70596,-0.15386 7.586106,-0.15386 5.143116,0 5.220267,0 5.220267,-0.53849 0,-0.92313 0.8229,-2.30782 1.645795,-2.82067 1.02863,-0.61542 2.1344,-0.61542 3.18874,0.0256 z m 24.63554,1.56419 c 6.32604,1.94882 12.00919,7.28244 14.015,13.15456 1.85152,5.3849 1.36293,12.66735 -1.13148,17.46248 -0.59146,1.12827 -0.66862,1.20519 -0.69432,0.58978 0,-0.38464 0.10286,-0.74363 0.23144,-0.8462 0.15429,-0.0769 0.23144,-0.94877 0.20572,-1.94882 -0.0257,-1.17955 0.0514,-1.89754 0.28287,-2.07704 0.46288,-0.38463 0.38574,-0.97441 -0.12858,-1.00005 -0.38573,-0.0256 -0.41144,-0.0513 -0.0514,-0.15385 0.28286,-0.0769 0.46287,-0.51286 0.59145,-1.43598 0.23145,-2.07704 0.18002,-3.51301 -0.12858,-3.51301 -0.15429,0 -0.23143,0.20514 -0.18001,0.46157 0.0771,0.25642 -0.0257,0.58977 -0.23144,0.76927 -0.18,0.20513 -0.3343,0.20513 -0.3343,0.0513 0,-0.38463 -1.28578,-0.30771 -1.44006,0.10256 -0.12858,0.359 -1.38865,0.25643 -1.38865,-0.10256 0,-0.12822 0.23145,-0.15386 0.51431,-0.0769 0.38573,0.10257 0.51431,0 0.51431,-0.38464 0,-0.6667 -0.46288,-0.97441 -0.6686,-0.46157 -0.3343,0.84621 -1.51722,0.0512 -1.20864,-0.7949 0.0514,-0.15386 -0.0257,-0.359 -0.15429,-0.46157 -0.25715,-0.15386 -0.41145,0.53849 -0.30858,1.38469 0.0514,0.17951 -0.0771,0.25643 -0.23145,0.15386 -0.15429,-0.10257 -0.25716,-0.359 -0.23144,-0.58978 0.0771,-0.82055 -0.0257,-1.07698 -0.41145,-1.07698 -0.3343,0 -0.38573,0.76927 -0.38573,5.4362 -0.0257,5.82082 -0.20573,9.97489 -0.4886,10.23132 -0.0771,0.10256 -0.41145,0.25641 -0.72004,0.33335 -0.54002,0.17949 -0.54002,0.15385 -0.56574,-3.7438 0,-2.15397 -0.10286,-7.05166 -0.18,-10.84674 l -0.1543,-6.92345 -1.05434,-1.10262 -1.05434,-1.07698 h -3.03444 -3.03444 v -0.71799 c 0,-0.38464 -0.10286,-0.82056 -0.20572,-0.94878 -0.28288,-0.38463 -2.10868,-0.33335 -2.10868,0.0513 0,0.1795 -0.10287,0.33335 -0.25716,0.33335 -0.12858,0 -0.1543,-0.20513 -0.0771,-0.46156 0.1543,-0.38463 0.12858,-0.41027 -0.30859,-0.0513 -0.25715,0.20514 -0.41145,0.25643 -0.30859,0.10257 0.10287,-0.17949 -0.0257,-0.35899 -0.30858,-0.43592 -0.36002,-0.0769 -0.51432,0.0513 -0.61717,0.58978 -0.18001,0.82056 -0.77147,1.12827 -1.49151,0.74363 -0.43716,-0.23078 -0.51432,-0.46157 -0.41144,-1.46163 0.0771,-1.12826 0.12857,-1.20519 0.8486,-1.20519 0.56575,0 0.72004,0.10257 0.66861,0.43592 -0.0514,0.359 0.10286,0.46157 0.72004,0.46157 0.41145,0 0.77147,-0.10257 0.77147,-0.25643 0,-0.15384 -0.0771,-0.23078 -0.18002,-0.23078 -0.48859,0.0769 -0.59145,-0.0513 -0.36001,-0.51284 0.20572,-0.359 0.18001,-0.56413 -0.1543,-0.82056 -0.25715,-0.20514 -0.36001,-0.23078 -0.25715,-0.0513 0.10286,0.15386 0.0771,0.35899 -0.0771,0.46156 -0.15428,0.0769 -0.36001,-0.10261 -0.48859,-0.43596 l -0.20572,-0.58977 -0.18001,0.58977 c -0.20573,0.61542 -0.36002,0.6667 -0.92576,0.30771 -0.30859,-0.17949 -0.30859,-0.30771 -0.0514,-0.56413 0.23143,-0.23078 0.30859,-0.23078 0.30859,0 0,0.17949 0.10286,0.3077 0.23144,0.3077 0.12857,0 0.18,-0.20513 0.10286,-0.46156 -0.0514,-0.25642 0.15429,-0.74363 0.4886,-1.12826 0.3343,-0.359 1.05433,-1.23084 1.62008,-1.89754 0.56574,-0.66671 1.46579,-1.6924 1.9801,-2.25654 0.54002,-0.58977 1.02863,-1.25647 1.13148,-1.5129 0.18001,-0.58977 1.18293,-0.56413 3.34303,0.10257 z m 21.98684,-0.28207 c 0.64289,0.359 0.61717,1.17955 -0.0257,1.53855 -1.10577,0.58977 -2.16011,-0.89749 -1.08006,-1.5129 0.54003,-0.33336 0.51432,-0.33336 1.10577,-0.0256 z m -35.51324,1.41033 c 1.80009,0.92313 0.92576,3.46173 -1.18292,3.46173 -0.6686,0 -1.38864,-0.97441 -1.38864,-1.92318 0,-0.94877 0.72004,-1.92318 1.41436,-1.92318 0.23144,0 0.74574,0.1795 1.1572,0.38463 z m 42.1993,1.66676 c 0.61717,0.33335 0.66859,1.66676 0.0771,1.89755 -0.74575,0.28206 -1.13149,0.15385 -1.44007,-0.48721 -0.23144,-0.5385 -0.20572,-0.71799 0.18,-1.15391 0.54004,-0.58978 0.51432,-0.58978 1.18293,-0.25643 z m 13.8607,0.76927 c 0.61718,0.61542 0.61718,0.74364 0.10286,1.48726 -0.43716,0.61542 -1.59436,0.76928 -2.10867,0.25643 -0.74576,-0.74363 -0.0514,-2.25653 1.0029,-2.25653 0.25716,0 0.72004,0.23078 1.00291,0.51284 z m -6.48033,0.43593 c 2.05725,1.53854 2.82871,3.71814 1.92867,5.43619 -1.6458,3.15401 -5.73458,3.43609 -7.5861,0.53849 -0.72004,-1.12826 -0.77147,-1.15391 -2.08297,-1.15391 -1.23434,0 -1.3372,-0.0513 -1.41435,-0.6667 -0.10287,-0.97441 0.51431,-1.41033 1.46578,-1.00006 0.43718,0.1795 0.90005,0.25643 1.02863,0.23078 0.15429,-0.0513 0.59146,-0.74362 0.97719,-1.5129 0.92576,-1.79496 2.23726,-2.64117 3.90878,-2.48731 0.61717,0.0769 1.41435,0.33335 1.77437,0.61542 z m -72.800859,1.74368 c 0.05146,0.15385 -0.591459,1.00006 -1.388642,1.8719 l -1.491512,1.61546 -5.065971,-0.0769 -5.040255,-0.0769 0.488598,-0.61541 c 0.462881,-0.56414 0.668605,-0.58978 4.834532,-0.74364 l 4.37165,-0.12821 1.105768,-1.12826 c 1.05434,-1.07698 1.954392,-1.35905 2.185832,-0.71799 z m 9.283329,0.38464 c 0.87433,0.53848 1.59437,1.84625 1.59437,2.89759 0,1.48726 -2.03154,3.25659 -3.75448,3.25659 -1.080058,0 -2.442983,-0.94877 -3.008726,-2.10268 -0.617177,-1.25648 -0.360019,-2.5386 0.720039,-3.69251 0.745748,-0.79491 0.977188,-0.87184 2.211542,-0.87184 0.951472,0 1.67151,0.1795 2.237255,0.51285 z m 52.27981,1.02569 c 1.00291,0.5385 0.33431,1.92319 -0.84861,1.74368 -0.66861,-0.0769 -0.95148,-1.05133 -0.46288,-1.64111 0.38573,-0.43592 0.64288,-0.46156 1.31149,-0.10257 z m -3.49732,0.76928 c 0,0.51285 -0.15429,0.6667 -0.72003,0.71798 -0.82291,0.10257 -1.18292,-0.51285 -0.66861,-1.12826 0.4886,-0.61542 1.38864,-0.359 1.38864,0.41028 z m 21.72969,-0.15386 c 0.72003,0.89749 -0.28288,2.38474 -1.20865,1.79496 -0.92575,-0.56412 -0.59145,-2.15395 0.43718,-2.15395 0.25715,0 0.59145,0.17949 0.77147,0.35899 z m -58.73444,1.8719 c 0.23144,0.84619 -0.41144,1.48727 -1.26006,1.25648 -1.08005,-0.25642 -1.02862,-1.66677 0.0771,-2.00012 0.61718,-0.20513 1.02863,0.0513 1.18292,0.74364 z m 3.80592,-0.61542 c 0.66861,0.48721 0.46288,1.82061 -0.30859,1.92318 -1.18293,0.17951 -1.77438,-1.0257 -0.92577,-1.84625 0.48861,-0.48721 0.6429,-0.51285 1.23436,-0.0769 z m 59.30016,3.76943 c 0.28288,1.35906 0.77147,2.33346 0.77147,1.53855 0,-0.15385 0.12858,-0.20514 0.25715,-0.12821 0.15431,0.0769 0.25716,-0.077 0.25716,-0.35899 0,-0.33335 -0.18001,-0.53849 -0.43716,-0.53849 -0.38574,0 -0.41145,-0.0513 -0.0771,-0.25643 0.20573,-0.12821 0.51431,-0.25643 0.66861,-0.25643 0.33431,0 0.87433,3.76944 1.05434,7.6158 l 0.15429,2.8976 -4.08878,0.0256 c -2.23725,0.0256 -4.19164,0 -4.34593,-0.0256 -0.12858,-0.0256 -1.90297,0.0256 -3.93449,0.12821 -3.67733,0.17949 -3.67733,0.17949 -3.93449,0.87185 -1.26006,3.30787 -5.76029,3.43607 -7.35466,0.20514 l -0.61717,-1.2052 h -2.57156 -2.57157 l 0.0771,-0.718 0.0771,-0.69233 2.62298,-0.0769 c 2.623,-0.0769 2.64871,-0.0769 3.03445,-0.82055 0.48859,-0.94878 2.34013,-2.0514 3.44589,-2.0514 1.33722,0 3.88306,1.61548 3.88306,2.43604 0,0.46156 2.1601,0.64105 8.17755,0.64105 5.01455,0 5.45171,-0.0256 5.47743,-0.46155 0.10286,-2.64117 -0.3343,-7.53888 -0.92576,-10.56468 -0.12858,-0.58978 -0.10286,-0.58978 0.20572,-0.1795 0.20573,0.23078 0.51432,1.12827 0.69432,1.97446 z m -26.07562,-0.87184 c 0.20574,0.84621 -0.38572,1.51291 -1.13148,1.28213 -1.18292,-0.38464 -0.87433,-1.94883 0.36002,-1.94883 0.43716,0 0.64289,0.1795 0.77146,0.6667 z m 3.39447,-0.35898 c 0.46288,0.46155 0.36002,1.17955 -0.18001,1.48725 -0.64289,0.33335 -1.23435,0.10257 -1.44008,-0.53849 -0.30858,-0.97441 0.90005,-1.66676 1.62009,-0.94876 z m 3.85734,0.51284 c 0.10286,0.82055 -0.56574,1.28211 -1.41436,0.94876 -1.13148,-0.41027 -0.54003,-1.84625 0.69432,-1.71803 0.48859,0.0513 0.66861,0.25643 0.72004,0.76927 z m -63.723255,-0.17949 c 0.154288,0.20513 0.257149,0.56412 0.205722,0.7949 -0.07716,0.359 -0.668603,0.43592 -5.19455,0.48721 l -5.143124,0.0769 -4.628805,4.74385 c -3.883057,3.97459 -4.860249,4.82078 -5.888873,5.20542 -1.080055,0.38463 -1.28578,0.38463 -1.491505,0.0769 -0.360018,-0.56413 -0.154294,-0.82056 1.182917,-1.56418 0.822899,-0.43592 2.803001,-2.28218 5.683148,-5.2567 l 4.39737,-4.56436 4.988821,-0.1282 c 2.751574,-0.0769 5.117405,-0.1795 5.271702,-0.20515 0.154296,-0.0256 0.437163,0.12822 0.617177,0.33335 z m 78.484005,0.33335 c 1.6458,0.94876 2.28869,3.872 1.23435,5.59005 -0.74575,1.17954 -2.52013,2.00009 -3.88306,1.76932 -1.08005,-0.1795 -3.06015,-1.66676 -3.06015,-2.30782 0,-0.1795 -0.25715,-0.38464 -0.56574,-0.4872 -0.33431,-0.0769 -4.32022,-0.15386 -8.87189,-0.15386 -4.57737,0 -8.30614,-0.0769 -8.33185,-0.20514 0,-0.10257 -0.0514,-0.38463 -0.10287,-0.64106 -0.0771,-0.41028 0.38574,-0.43592 7.02036,-0.43592 3.93449,0 7.89469,-0.0769 8.82045,-0.15386 1.62009,-0.15385 1.69723,-0.20514 1.98011,-1.00005 0.8229,-2.23089 3.6259,-3.2053 5.76029,-1.97446 z m -43.43364,0.58977 c 0.15429,0.23078 0.18,0.61542 0.10286,0.8462 -0.15429,0.35899 -0.90005,0.41028 -6.94321,0.41028 -3.72876,0 -7.50895,-0.0769 -8.40901,-0.1795 l -1.59436,-0.15385 0.74575,-0.6667 0.77147,-0.6667 h 7.53466 c 6.63464,0 7.56039,0.0513 7.79184,0.41027 z m 3.80591,1.43598 c 0.10286,3.05144 0.0771,6.30803 -0.0771,6.56445 -0.15429,0.23078 -0.20572,0.23078 -0.20572,-0.0256 0,-0.17951 -0.36003,-0.30772 -0.87433,-0.30772 -0.77148,0 -0.90006,0.10257 -1.00291,0.69235 -0.0514,0.41028 -0.12858,0.12821 -0.18001,-0.69235 -0.0257,-0.76927 -0.0514,-1.56418 -0.0257,-1.74368 0.0257,-0.20514 -0.1543,-0.51285 -0.41145,-0.71798 -0.43717,-0.30772 -0.43717,-0.33335 0,-0.359 0.61717,0 0.56574,-0.51285 -0.0771,-0.51285 -0.51431,0 -0.51431,0.1795 -0.54003,9.6672 -0.0514,8.53892 -0.30859,19.36002 -0.43716,17.0522 -0.0514,-0.71799 -0.12858,-0.82056 -0.77148,-0.82056 h -0.74574 l -0.1543,-6.20546 c -0.10286,-3.41044 -0.18001,-8.76971 -0.18001,-11.92373 v -5.71825 h -2.05724 -2.03154 l -0.10286,4.92334 c -0.0771,2.7181 -0.12858,5.05155 -0.1543,5.20541 -0.10286,0.71799 0.36002,1.97447 0.79718,2.20525 1.1315,0.61541 1.08007,2.69244 -0.0771,3.30787 -2.05725,1.12827 -4.52595,-1.58983 -2.72585,-3.00017 0.69432,-0.53848 1.20863,-2.28217 0.92576,-3.0258 -0.10286,-0.28207 -0.20573,-2.56424 -0.20573,-5.0772 l -0.0257,-4.5387 h -1.8001 -1.80009 v 5.12847 5.1285 l -2.18582,2.41038 c -1.20864,1.3334 -2.64871,2.76938 -3.18874,3.2053 l -1.00291,0.79491 h -4.03735 -4.06306 l -4.654527,2.20525 c -5.991732,2.84631 -8.691873,3.89765 -8.254702,3.17966 0.07715,-0.15385 0,-0.25642 -0.180013,-0.25642 -0.848618,0 0.874334,-0.97441 6.454613,-3.58994 l 6.043169,-2.82067 4.32023,-0.17949 4.34593,-0.15386 2.59727,-2.71809 2.59728,-2.7181 -0.18,-3.2053 c -0.0771,-1.76932 -0.15431,-3.92329 -0.15431,-4.82077 v -1.58983 h -2.57156 -2.57155 v 2.87195 c 0.0257,2.15395 0.10287,3.0258 0.38573,3.3848 0.56575,0.76927 0.46288,1.82061 -0.28286,2.69245 l -0.66861,0.79491 h -3.83163 c -3.83163,0 -3.83163,0 -3.83163,0.58978 0,0.33335 -0.3343,1.12826 -0.74575,1.79497 -0.61717,0.94876 -0.97719,1.23084 -1.851523,1.46161 -1.18292,0.33335 -2.417267,0.15386 -2.134392,-0.3077 0.102862,-0.15385 -0.02573,-0.43593 -0.282875,-0.64107 -0.282867,-0.17949 -0.411446,-0.33335 -0.334301,-0.33335 0.102861,0 0,-0.3077 -0.205723,-0.71798 -0.308593,-0.61542 -0.308593,-0.69235 0.02573,-0.76927 0.84861,-0.1795 0.205723,-0.74364 -0.694322,-0.58978 -0.308592,0.0513 -0.23144,-0.359 0.102862,-0.69235 0.23144,-0.23078 0.23144,-0.3077 0,-0.3077 -0.180014,0 -0.308592,-0.10257 -0.308592,-0.25643 0,-0.12821 0.07715,-0.23078 0.20573,-0.17949 0.102862,0.0256 0.180006,-0.0769 0.180006,-0.20515 0,-0.12821 -0.07715,-0.23078 -0.180006,-0.20513 -0.128579,0.0513 -0.20573,-0.0513 -0.20573,-0.1795 0,-0.15385 0.128578,-0.25642 0.257157,-0.25642 0.154296,0 0.257158,-0.12822 0.257158,-0.28208 0,-0.1282 -0.154296,-0.17949 -0.308585,-0.0769 -0.23144,0.15386 -0.23144,0.0769 0,-0.23078 0.514308,-0.58977 2.005813,-1.02569 3.008726,-0.8462 0.48859,0.10257 1.38864,0.53849 1.98009,1.00006 1.10578,0.82055 1.1315,0.82055 3.75449,0.74362 l 2.62298,-0.0769 v -0.92313 c 0,-1.02569 0.59147,-1.8719 1.33722,-1.8719 0.41145,0 0.46289,-0.25642 0.46289,-2.6668 v -2.64117 l -1.54295,-0.17951 c -1.23435,-0.15384 -1.67151,-0.10257 -2.21154,0.28208 l -0.69432,0.43592 0.61717,-0.92314 c 0.38574,-0.58978 0.87433,-1.00005 1.36293,-1.07697 0.38573,-0.0769 4.52595,-0.15386 9.15476,-0.15386 4.6288,0 9.28333,-0.0769 10.36338,-0.15385 1.85152,-0.1795 1.9801,-0.20514 1.9801,-0.76927 0,-0.33335 0.12858,-0.61543 0.25716,-0.61543 0.1543,0 0.25716,0.17951 0.25716,0.41028 0,0.23079 0.18,0.359 0.43716,0.30772 0.56574,-0.10257 0.74576,-0.718 0.23145,-0.718 -0.23145,0 -0.41145,-0.12821 -0.41145,-0.25642 0,-0.15385 0.18,-0.25642 0.41145,-0.25642 0.23143,0 0.36001,-0.15386 0.28287,-0.33335 -0.0771,-0.20514 -0.0257,-0.51285 0.10286,-0.71799 0.12858,-0.20514 0.23144,-0.23078 0.23144,-0.0769 0,0.1795 0.41145,0.30771 0.92576,0.30771 1.20863,0 1.00291,-0.5385 -0.3086,-0.74363 l -1.0029,-0.15385 1.23435,-0.0513 c 0.9772,-0.0256 1.20864,0.0513 1.23435,0.41028 z m -36.027564,0.89748 c 1.028623,1.10262 0.308585,3.0258 -1.157202,3.0258 -0.771465,0 -1.671509,-0.92312 -1.671509,-1.71804 0,-0.74363 1.08005,-1.87189 1.774371,-1.87189 0.282874,0 0.745755,0.25642 1.05434,0.56413 z m -22.809736,1.30776 c -0.02572,0.38464 -0.437165,1.15391 -0.900045,1.71804 -0.668607,0.82056 -1.028624,1.0257 -1.722946,1.0257 h -0.848614 l 0.437164,-0.71798 c 1.182918,-1.82062 2.057248,-2.79503 2.571561,-2.76939 0.385734,0.0256 0.514311,0.20514 0.46288,0.74363 z m 18.052349,-0.23078 c 0.411454,0.30771 0.437164,0.41028 0.154296,0.76927 -0.282875,0.33335 -0.848617,0.41028 -2.70014,0.41028 h -2.391548 l -3.394462,3.46173 c -1.87724,1.89754 -3.523033,3.46172 -3.67733,3.46172 -0.128578,0 -2.931577,1.23084 -6.197459,2.71811 -9.411908,4.30792 -9.926221,4.48741 -9.951937,3.28222 0,-0.28207 3.780194,-2.15397 11.700599,-5.7439 l 4.628803,-2.10268 3.214457,-3.17966 3.214448,-3.15402 1.542939,-0.10256 c 0.848609,-0.0513 1.954384,-0.10257 2.468692,-0.12822 0.488598,-0.0257 1.131484,0.10257 1.388642,0.30771 z m 48.988221,5.66698 c 0,0.20514 -0.10286,0.38463 -0.25715,0.38463 -0.12858,0 -0.18002,-0.17949 -0.10287,-0.38463 0.10287,-0.20515 0.20572,-0.38464 0.25716,-0.38464 0.0514,0 0.10286,0.17949 0.10286,0.38464 z m -10.36339,0.69233 c -0.0771,0.20515 -0.15428,0.12822 -0.15428,-0.15384 -0.0257,-0.28207 0.0514,-0.43593 0.12857,-0.33335 0.0771,0.0769 0.10286,0.3077 0.0257,0.48719 z m 8.30615,0.10257 c 0,0.84621 -0.84862,0.76928 -0.9772,-0.10257 -0.0771,-0.43591 0.0514,-0.56413 0.43716,-0.56413 0.41146,0 0.54004,0.15386 0.54004,0.6667 z m -68.814954,0.0769 c 0.64289,0.71799 0.437165,1.84625 -0.411449,2.33346 -0.642891,0.33335 -0.797184,0.33335 -1.414359,0 -1.388642,-0.76928 -0.87433,-2.82067 0.694322,-2.82067 0.385734,0 0.900046,0.23078 1.131486,0.48721 z m 69.869284,0.87184 c -0.0257,0.30771 -0.38573,0.23078 -0.48859,-0.10257 -0.0771,-0.15386 0.0257,-0.25643 0.20572,-0.20514 0.15429,0.0769 0.28287,0.20514 0.28287,0.30771 z m 1.00291,0.0769 c 0,0.20514 -0.12857,0.3077 -0.25715,0.23078 -0.1543,-0.10257 -0.20573,-0.28207 -0.12858,-0.41028 0.23143,-0.359 0.38573,-0.28207 0.38573,0.1795 z m 0.95148,0 c -0.0771,0.0769 -0.30859,0.10257 -0.4886,0.0256 -0.20572,-0.0769 -0.12857,-0.15385 0.15429,-0.15385 0.28288,-0.0256 0.43717,0.0513 0.33431,0.12821 z m -0.95148,1.38469 c 0,0.12821 -0.12857,0.25642 -0.28288,0.25642 -0.12857,0 -0.18,-0.12821 -0.10285,-0.25642 0.0771,-0.15386 0.20572,-0.25642 0.28287,-0.25642 0.0514,0 0.10286,0.10256 0.10286,0.25642 z m -1.08005,0.35899 c -0.18002,0.20514 -0.38574,0.30771 -0.43717,0.28207 -0.12858,-0.15386 0.25715,-0.64106 0.51431,-0.64106 0.12857,0 0.10287,0.15385 -0.0771,0.35899 z m 34.89606,0.74363 c 1.41435,1.20519 0.64289,3.51301 -1.1572,3.51301 -0.8229,0 -2.05725,-1.05134 -2.05725,-1.76933 0,-1.23083 0.95148,-2.28217 2.10868,-2.30782 0.23144,-0.0256 0.74576,0.23079 1.10577,0.56414 z m 4.1145,1.35905 c 0.4886,0.51284 0.41144,1.10262 -0.18002,1.48725 -0.54002,0.33336 -1.31148,-0.0513 -1.44006,-0.6667 -0.0771,-0.41027 0.59145,-1.23083 0.97718,-1.23083 0.12858,0 0.41146,0.17949 0.6429,0.41028 z m -7.68897,0.41028 c 0.10287,0.12821 0.0514,0.48721 -0.10286,0.8462 l -0.30858,0.64106 h -9.5662 c -5.27171,0 -10.18338,-0.077 -10.90342,-0.15386 -1.20864,-0.15385 -1.28578,-0.20514 -1.18292,-0.76927 0.10286,-0.56413 0.20572,-0.58978 2.59728,-0.6667 4.98882,-0.15385 19.28669,-0.0769 19.4667,0.10257 z m -83.652845,0.48721 c 0.771472,0.43592 1.722951,1.38468 1.157202,1.17954 -0.23144,-0.0769 -0.462881,-0.0512 -0.514309,0.0769 -0.07715,0.25642 -13.063525,6.74395 -17.306599,8.6415 -8.666157,3.89764 -14.297873,6.41059 -15.223634,6.76959 -0.488597,0.1795 -0.437165,-0.0256 0.514312,-1.5129 1.080055,-1.71804 1.10577,-1.71804 4.423083,-3.3848 1.851522,-0.92313 5.606001,-2.69245 8.35757,-3.94893 2.751569,-1.25648 7.097505,-3.25659 9.643349,-4.46179 4.705954,-2.20524 7.791823,-3.58992 8.17756,-3.61557 0.128579,-0.0256 0.462881,0.10257 0.771466,0.25643 z m 84.630045,2.82066 c 0.38573,0.3077 0.6686,0.76927 0.6686,1.15391 0,0.79491 -0.84862,1.64111 -1.6715,1.64111 -0.74577,0 -1.67152,-0.82056 -1.67152,-1.51291 0,-0.66669 0.97719,-1.8206 1.51721,-1.8206 0.25716,0 0.77147,0.23078 1.15721,0.53849 z m -5.52886,0.38464 c 0.69432,0.56413 0.79719,0.84619 0.79719,1.87189 0,0.97441 -0.12858,1.3334 -0.66861,1.84625 -0.9772,0.89749 -2.44298,0.79493 -3.54875,-0.25642 l -0.82291,-0.79492 h -4.55165 -4.55167 v -0.76927 -0.76927 h 4.75739 c 2.62299,0 4.75739,-0.10257 4.75739,-0.23079 0,-0.10256 0.30858,-0.51284 0.6686,-0.89747 0.90004,-0.89749 2.10869,-0.89749 3.16302,0 z m -14.94076,0.48719 c 0.77146,0.8975 0.74575,2.20525 -0.0514,3.12838 -0.4886,0.56414 -0.8229,0.71799 -1.69724,0.71799 -0.90004,0 -1.20863,-0.15385 -1.8258,-0.8462 -0.79718,-0.89749 -0.92576,-1.61547 -0.41145,-2.61552 0.72004,-1.41034 2.88015,-1.61548 3.98592,-0.38465 z m -57.808665,1.28222 c 0.48859,0.58977 0.07715,0.89748 -2.803003,2.1796 -1.902957,0.8462 -2.597279,1.28212 -2.597279,1.61547 0,0.69235 -0.668603,1.8719 -1.440069,2.46168 -0.900052,0.71799 -2.725858,0.71799 -3.703046,0.0256 -1.028623,-0.74363 -1.6458,-2.38474 -1.285782,-3.48736 0.771466,-2.30782 3.497324,-3.15402 5.220268,-1.64112 l 0.874327,0.76928 2.545845,-1.12828 c 2.983008,-1.3334 2.777284,-1.28211 3.188739,-0.7949 z m 24.095515,2.97452 c 1.13148,0.43593 1.92868,1.28212 1.56865,1.6924 -0.23144,0.28207 -0.18001,0.3077 0.20573,0.17949 0.36002,-0.10257 0.3343,-0.0256 -0.1543,0.38464 -0.43717,0.359 -0.5143,0.53849 -0.25715,0.53849 0.20572,0.0257 0.0771,0.1795 -0.3086,0.41028 -0.82289,0.43592 -0.95147,0.6667 -0.25715,0.46156 0.41146,-0.12821 0.41146,-0.12821 -0.0257,0.15386 -0.23143,0.15385 -0.38572,0.38463 -0.30859,0.51285 0.0771,0.12821 -0.10285,0.35899 -0.38573,0.51284 -0.28287,0.15386 -0.48859,0.38464 -0.43717,0.51286 0.0257,0.12821 -0.18,0.41028 -0.46287,0.64106 -0.43717,0.35899 -0.43717,0.41027 -0.0514,0.28206 0.61716,-0.17949 0.54002,0.0257 -0.10287,0.38464 -0.38574,0.20514 -0.4886,0.20514 -0.38574,0 0.10287,-0.15386 0,-0.28208 -0.23143,-0.28208 -0.23145,0 -0.33431,0.10257 -0.25716,0.25643 0.28287,0.46157 -0.54003,0.28207 -1.44008,-0.33335 -2.39155,-1.58982 -2.23725,-4.84641 0.30859,-6.12853 1.00291,-0.53849 1.92866,-0.58978 2.98301,-0.1795 z m 48.08817,1.6924 c 2.44298,0.0769 4.37165,0.25643 4.2945,0.38464 -0.0771,0.10257 -0.41145,0.20514 -0.77147,0.20514 -0.77146,0 -0.82289,0.46156 -0.0257,0.4872 0.9772,0.0257 1.4658,0.10257 1.33722,0.23078 -0.0771,0.0769 0,0.25642 0.12858,0.43592 0.28287,0.33335 -5.47743,0.64106 -11.98348,0.64106 h -3.39445 l -1.87724,2.10268 c -1.05434,1.17956 -2.4687,2.79503 -3.13731,3.58994 l -1.26006,1.48726 h -4.86025 -4.88596 l 0.51432,-0.53849 c 0.28286,-0.30771 0.79717,-0.56413 1.1829,-0.56413 0.36003,0 0.72004,-0.0769 0.7972,-0.20515 0.0771,-0.12821 -0.23145,-0.23078 -0.66862,-0.23078 -0.46287,0 -0.74574,-0.10257 -0.64288,-0.25642 0.10286,-0.15385 1.80008,-0.25642 4.19164,-0.25642 l 4.03735,-0.0256 2.18583,-2.38474 c 1.18291,-1.30776 2.18582,-2.48732 2.23725,-2.61554 0.0514,-0.1282 -2.16011,-0.25641 -4.98882,-0.28206 -2.9573,-0.0513 -5.16885,-0.17949 -5.32313,-0.33335 -0.18001,-0.1795 -0.12858,-0.25643 0.12858,-0.25643 0.51431,0 1.77437,-0.58977 1.77437,-0.8462 0,-0.10256 -0.15429,-0.17949 -0.30858,-0.12821 -0.18002,0.0513 -0.38574,-0.0513 -0.46289,-0.17949 -0.0771,-0.15386 0.64289,-0.30771 1.80009,-0.41028 2.88015,-0.20514 14.94076,-0.25642 19.98102,-0.0513 z m -61.17742,1.41033 c 0.18002,0.1795 0.3086,0.41028 0.3086,0.53849 0,0.53849 -14.375025,6.97474 -14.760762,6.5901 -0.540025,-0.53849 0.668612,-1.41033 4.088783,-3.00016 4.551663,-2.10268 9.720499,-4.43614 9.926219,-4.43614 0.0771,0 0.25716,0.12821 0.43716,0.30771 z m 6.48034,2.3591 v 0.8462 l -4.70596,2.20525 c -2.59726,1.23084 -6.557472,3.05144 -8.820449,4.0515 -8.177559,3.66687 -9.026176,4.02587 -11.546302,5.23106 -1.41436,0.6667 -4.525948,2.10267 -6.943212,3.20529 -15.995103,7.28245 -19.158121,8.71842 -19.286699,8.71842 -0.07715,0 0.102862,-0.46156 0.385733,-1.02569 0.59146,-1.17955 1.157203,-1.48726 11.700599,-6.41061 3.394459,-1.58983 8.203272,-3.84635 10.671972,-5.00027 5.55457,-2.64116 9.154754,-4.25663 14.786468,-6.66702 2.417266,-1.0257 6.40318,-2.82066 8.87189,-3.94893 2.4687,-1.12827 4.57738,-2.07703 4.70596,-2.07703 0.10285,0 0.18,0.38462 0.18,0.87183 z m -35.616106,-0.41029 c -0.154294,0.12821 -1.131487,0.58977 -2.185827,1.07698 -2.365835,1.05133 -7.843257,3.66686 -12.986377,6.17982 -2.10868,1.05134 -4.500231,2.17961 -5.271698,2.51296 -0.771466,0.33335 -2.108677,0.94876 -2.957291,1.35904 -0.848615,0.41029 -1.311496,0.53849 -1.028625,0.30772 1.260065,-1.0257 21.31823,-10.64161 23.786927,-11.41088 0.874331,-0.25642 0.900047,-0.25642 0.642891,-0.0256 z m -2.828717,2.76937 c -2.108679,1.07699 -6.043165,2.94889 -8.743303,4.20536 -2.674422,1.23084 -5.760294,2.66681 -6.814634,3.15401 -2.648704,1.23084 -3.908769,1.7437 -4.037347,1.61548 -0.07715,-0.0513 2.005815,-1.12826 4.60309,-2.41038 3.934486,-1.92319 8.460432,-4.15408 10.826267,-5.30798 1.671515,-0.82057 7.303231,-3.17967 7.637534,-3.17967 0.205724,0 -1.337212,0.87185 -3.471607,1.92318 z m 91.393243,-0.89747 c 1.6458,0.0256 2.72585,0.10257 2.41727,0.15384 -0.64289,0.12822 -0.77147,0.48721 -0.25716,0.6667 0.15429,0.0513 -1.51723,0.15387 -3.75448,0.23079 -4.75738,0.15386 -3.9602,-0.33335 -8.30614,4.82078 l -2.803,3.30786 h -7.97183 c -5.01454,0 -7.76611,-0.10256 -7.38038,-0.23078 0.30859,-0.12821 0.56574,-0.359 0.56574,-0.51285 0,-0.1282 0.28287,-0.25642 0.61718,-0.25642 0.36002,0 0.72004,-0.12821 0.82289,-0.30771 0.12858,-0.20514 0,-0.23078 -0.36001,-0.15385 -0.69432,0.1795 -1.0029,-0.1795 -0.36002,-0.43593 0.23144,-0.10257 3.44589,-0.23078 7.12323,-0.3077 l 6.68605,-0.10257 2.18582,-2.3591 c 1.18293,-1.30777 2.72586,-2.92324 3.39445,-3.61559 l 1.23436,-1.25647 1.56865,0.17949 c 0.87434,0.0769 2.93158,0.17951 4.57738,0.17951 z m -95.636317,0.35898 c -0.180008,0.20514 -0.462881,0.38464 -0.617175,0.38464 -0.154293,0 -0.05142,-0.1795 0.205726,-0.38464 0.64289,-0.4872 0.8229,-0.4872 0.411449,0 z m 12.93495,-0.20514 c -0.411454,0.15386 -0.437171,0.76928 -0.05146,0.89749 0.257158,0.0769 -10.029083,5.10284 -12.832084,6.28239 -0.514311,0.20514 -2.957293,1.30777 -5.400276,2.41039 -3.883055,1.76933 -4.500229,1.97446 -4.834532,1.66676 -0.41145,-0.41028 -0.488596,-0.76928 -0.128578,-0.56413 0.128578,0.10256 0.282872,0.0513 0.334303,-0.0769 0.205725,-0.53849 22.01255,-10.74418 22.964029,-10.74418 0.154296,0 0.102862,0.0513 -0.05139,0.12821 z m -16.920867,2.12833 c -0.565743,0.25642 -1.131487,0.46157 -1.28578,0.46157 -0.128578,0 0.205725,-0.20515 0.771468,-0.48722 0.565743,-0.25643 1.157201,-0.46156 1.285779,-0.46156 0.154294,0 -0.205724,0.23078 -0.771467,0.48721 z m 23.786927,0.76927 c 0.282875,0.28207 0.514316,0.74363 0.514316,1.02569 0,1.25648 -2.031537,2.02576 -2.931581,1.12827 -0.540025,-0.51284 -0.514308,-1.61547 0.02573,-2.20525 0.540026,-0.61541 1.748663,-0.58977 2.391549,0.0513 z m 38.779127,-0.15386 c -0.18,0.20514 -0.38574,0.30771 -0.43716,0.28207 -0.12858,-0.15386 0.25716,-0.64106 0.51431,-0.64106 0.12857,0 0.10285,0.15385 -0.0771,0.35899 z m 38.13623,0.43593 c 1.36293,0.46156 2.03154,1.20518 2.03154,2.23088 0,1.12828 -0.61718,1.84625 -1.59437,1.84625 -1.18292,0 -1.87724,-0.94875 -1.82581,-2.51295 0.0257,-0.17949 -0.30859,-0.3077 -0.74575,-0.3077 -0.87434,0 -2.1344,1.10262 -2.39156,2.10268 -0.28287,1.10262 0.3086,2.64117 1.33722,3.56429 1.18292,1.0257 1.3115,1.76932 0.28287,1.76932 -0.97719,0 -2.62299,-1.53854 -3.18874,-2.97452 -1.3372,-3.53865 2.31441,-6.97473 6.0946,-5.71825 z m -38.85627,0.15385 c -0.0514,0.53849 -3.67732,2.82066 -7.63753,4.79513 -2.44298,1.20519 -4.55166,2.20525 -4.70595,2.20525 -0.1543,0 -0.10287,-0.30771 0.12858,-0.76928 0.25716,-0.48719 0.8229,-0.94876 1.67151,-1.30776 0.72003,-0.30771 1.28578,-0.64106 1.28578,-0.76927 0,-0.12822 0.15429,-0.23079 0.3343,-0.23079 0.18002,0 0.59146,-0.23078 0.87434,-0.51284 0.30858,-0.25643 0.84861,-0.56413 1.23434,-0.6667 0.51431,-0.12821 0.59146,-0.23078 0.3343,-0.38464 -0.23144,-0.15385 -0.0514,-0.23078 0.51431,-0.23078 1.02863,0 1.85153,-0.41028 1.85153,-0.89748 0,-0.20514 0.38572,-0.43593 0.97719,-0.53849 0.51431,-0.10258 1.18292,-0.33335 1.46579,-0.51285 0.54003,-0.38464 1.67151,-0.48721 1.67151,-0.1795 z m -47.702434,4.35921 c -2.648707,1.35905 -5.78601,2.82067 -20.829636,9.76976 -3.394456,1.56418 -6.583191,2.92324 -7.071788,3.00016 -0.488596,0.0769 -0.822899,0.10257 -0.771468,0.0256 0.514313,-0.48721 9.437623,-5.10284 13.243532,-6.82088 3.497321,-1.58983 5.143119,-2.41038 5.220267,-2.61553 0.05142,-0.10257 0.205724,-0.12821 0.334302,-0.0513 0.154293,0.0769 0.514312,-0.0256 0.8229,-0.20513 0.308587,-0.20515 1.234348,-0.64107 2.031532,-0.94877 0.87433,-0.359 1.414358,-0.71799 1.311496,-0.87185 -0.07715,-0.1282 -0.05143,-0.1795 0.102862,-0.10257 0.257156,0.15386 2.622991,-0.61541 4.834533,-1.58983 0.668605,-0.3077 1.465792,-0.53848 1.774376,-0.53848 0.282867,0 0.720038,-0.12822 0.925762,-0.25643 0.205723,-0.12822 0.514308,-0.25642 0.642887,-0.23079 0.154296,0 -1.002907,0.64106 -2.571557,1.43598 z m 27.258534,-0.43593 c 0.0771,0.12822 0.0514,0.25643 -0.0514,0.25643 -0.12857,0 -0.69432,0.43592 -1.28577,0.97442 -0.74575,0.69235 -2.44299,1.61547 -5.528862,3.00016 -2.442983,1.10262 -5.374556,2.46166 -6.506041,3.0258 -2.82872,1.41033 -11.674888,5.48748 -19.929593,9.15434 -2.622991,1.17955 -6.480331,2.8976 -8.614726,3.84637 -4.654523,2.10267 -5.143119,2.25652 -4.937394,1.71803 0.07715,-0.23078 0.02572,-0.46156 -0.154294,-0.51284 -0.488596,-0.15386 1.902954,-1.56419 6.968927,-4.0515 2.57156,-1.25649 4.680239,-2.38475 4.680239,-2.48732 0,-0.10257 0.257157,-0.20514 0.540029,-0.23078 0.720035,-0.0513 0.951476,-0.30771 0.51431,-0.58977 -0.231439,-0.12822 -0.282871,-0.38465 -0.180008,-0.66671 0.180008,-0.43591 0.23144,-0.38464 0.514311,0.28206 0.205725,0.48721 0.385735,0.64108 0.514313,0.43593 0.102862,-0.1795 0.05142,-0.30771 -0.07715,-0.30771 -0.154293,0 -0.282871,-0.23079 -0.282871,-0.51284 0,-0.46157 0.154294,-0.56414 0.668606,-0.48722 0.102862,0 0.257156,-0.0769 0.334302,-0.20513 0.411451,-0.56414 3.317313,-1.8719 4.320221,-1.92318 0.18001,-0.0256 0.257156,-0.10257 0.205725,-0.20514 -0.05143,-0.0769 0.128578,-0.28207 0.411449,-0.46156 0.282872,-0.1795 0.488597,-0.20514 0.488597,-0.0512 0,0.12821 0.128578,0.25642 0.282872,0.25642 0.128578,0 0.180009,-0.12821 0.102862,-0.25642 -0.128578,-0.23078 0.411451,-0.38465 0.977194,-0.28208 0.128578,0.0256 0.154296,-0.0769 0.05139,-0.20513 -0.07715,-0.15385 0.07716,-0.38464 0.360018,-0.51285 0.642895,-0.359 1.080058,-0.359 0.488598,0 -0.257157,0.12821 -0.46288,0.51285 -0.437163,0.82056 0.02573,0.5385 0.0514,0.51285 0.23144,-0.0769 0.102862,-0.35899 0.205723,-0.53849 0.231441,-0.41028 0.02573,0.12821 0.205723,0.0769 0.411446,-0.10257 0.205731,-0.17949 0.308592,-0.41027 0.231441,-0.53849 -0.154289,-0.25643 0.951478,-0.74363 1.260063,-0.56413 0.102869,0.0769 0.437171,-0.15386 0.720039,-0.46157 0.385736,-0.46156 0.565742,-0.51284 0.720038,-0.25641 0.154296,0.25641 0.257157,0.23077 0.385736,-0.10258 0.128579,-0.35899 0.231441,-0.38464 0.540026,-0.12821 0.334302,0.28207 0.360018,0.25642 0.257157,-0.0512 -0.102861,-0.23079 0.02573,-0.46157 0.23144,-0.5385 0.231441,-0.10257 0.411447,-0.0257 0.411447,0.15385 0,0.15386 0.180014,0.0256 0.411454,-0.28206 0.205723,-0.30771 0.514308,-0.51284 0.642886,-0.43592 0.128579,0.10257 0.23144,0.0513 0.23144,-0.0512 0,-0.12822 0.257159,-0.23078 0.540026,-0.25643 0.308592,-0.0256 0.771473,-0.25642 1.02863,-0.4872 0.282868,-0.23078 0.488591,-0.359 0.488591,-0.23078 0,0.10256 0.154296,0.0769 0.334302,-0.0769 0.154296,-0.15386 0.360019,-0.25643 0.437171,-0.23078 0.07715,0 1.157202,-0.46156 2.417266,-1.05134 1.90295,-0.89749 2.34012,-1.02569 2.674423,-0.76928 0.334302,0.28207 0.385729,0.25643 0.23144,-0.12821 -0.07715,-0.23078 -0.07715,-0.43593 0.02573,-0.46155 0.102869,0 0.411454,-0.077 0.694321,-0.15386 0.282875,-0.0513 0.720038,-0.12822 0.977197,-0.15387 0.23144,-0.0256 0.437163,-0.17949 0.437163,-0.35898 0,-0.1795 0.180013,-0.33335 0.385736,-0.33335 0.231441,0 0.334302,0.17949 0.231441,0.43591 -0.05146,0.25642 0.02573,0.20515 0.180006,-0.1282 0.385736,-0.69235 0.668611,-0.718 0.874334,-0.0513 0.205723,0.61543 0.642887,0.43592 0.642887,-0.25641 0,-0.25643 0.102861,-0.53849 0.23144,-0.61542 0.128579,-0.10258 0.180014,0.0769 0.102861,0.35899 -0.07715,0.30771 0,0.51284 0.154297,0.51284 0.180005,0 0.23144,-0.10256 0.154296,-0.25641 -0.07716,-0.12822 0,-0.1795 0.205723,-0.10257 0.180004,0.0513 0.617174,0.0256 0.977184,-0.10257 0.33431,-0.12822 0.69433,-0.28208 0.79719,-0.30771 0.10287,-0.0256 0.74575,-0.25642 1.41436,-0.51285 1.44007,-0.56414 1.77438,-0.61542 2.00581,-0.25643 z m -6.223173,0.76928 c -0.07715,0.28207 -0.180012,0.51285 -0.23144,0.51285 -0.05146,0 -0.102862,-0.23078 -0.102862,-0.51285 0,-0.28206 0.102862,-0.51285 0.231441,-0.51285 0.128579,0 0.180006,0.23079 0.102861,0.51285 z m 38.547683,5.10284 c 0.0771,0 0.72004,0.56414 1.41436,1.23084 0.84862,0.84619 1.44008,1.23083 1.95438,1.23083 0.38574,0.0257 0.69432,-0.0769 0.69432,-0.20514 0,-0.12821 0.12858,-0.12821 0.33431,0 0.28287,0.23079 2.44298,0.20514 2.67442,-0.0256 0.0771,-0.0769 0.0514,-0.25642 -0.0514,-0.41027 -0.12857,-0.20515 -0.25715,-0.20515 -0.51431,0 -0.23144,0.20513 -0.36002,0.1795 -0.46288,-0.0769 -0.10286,-0.28206 0.36002,-0.41027 2.18582,-0.53849 4.83454,-0.33335 6.48033,-0.12821 6.71178,0.79492 0.10286,0.35899 0.12858,0.33335 0.15429,-0.12822 0,-0.3077 0.12858,-0.56413 0.25716,-0.56413 0.12858,0 0.18,0.23078 0.10286,0.51285 -0.0771,0.28207 0,0.51285 0.1543,0.51285 0.15429,0 0.28287,-0.15385 0.28287,-0.359 0,-0.20513 0.10285,-0.43592 0.23143,-0.51284 0.10287,-0.077 0.1543,0.17949 0.0771,0.56412 -0.12857,0.61543 -0.10286,0.66671 0.28288,0.33336 0.25715,-0.17949 0.43716,-0.25642 0.43716,-0.12821 0,0.12821 0.54003,0.25642 1.23436,0.30771 1.90294,0.12821 2.23725,0.20514 2.3144,0.61541 0.10286,0.56414 -2.26298,0.69235 -10.85199,0.53849 l -7.22608,-0.15384 -1.8258,-1.35905 -1.8001,-1.38469 -2.82871,-0.0513 -2.80301,-0.0256 1.92866,-0.20513 c 1.05435,-0.10257 2.34013,-0.30771 2.82873,-0.41027 0.77146,-0.20515 1.41436,-0.23079 2.10868,-0.10258 z m -34.35603,2.23089 c 0.0514,0.28207 -0.56576,0.69234 -2.03155,1.38469 -11.057699,5.10284 -14.632167,6.74396 -22.552575,10.30825 -5.014542,2.25654 -11.752028,5.30798 -14.992194,6.7696 -6.351752,2.89759 -7.123221,3.17966 -7.123221,2.64116 0,-0.20514 0.102862,-0.51284 0.205724,-0.66669 0.18001,-0.30772 13.243534,-6.7696 16.226544,-8.05172 0.720036,-0.30771 1.260064,-0.64106 1.182917,-0.74363 -0.07715,-0.12822 0.128578,-0.15386 0.437166,-0.0513 0.334303,0.0769 0.488596,0.0257 0.385734,-0.12821 -0.102863,-0.15385 -0.02572,-0.25642 0.154294,-0.25642 0.514311,0.0256 1.9801,-0.61543 1.9801,-0.87185 0,-0.1282 -0.102862,-0.23078 -0.257156,-0.23078 -0.128578,0 -0.257156,0.1282 -0.257156,0.28207 0,0.20513 -0.128578,0.20513 -0.385734,-0.0257 -0.205725,-0.17949 -0.385734,-0.46156 -0.360018,-0.6154 0,-0.17951 0.05142,-0.15387 0.154293,0.0257 0.05143,0.17949 0.23144,0.33335 0.385734,0.33335 0.154294,0 0.205725,-0.1795 0.102863,-0.38464 -0.07715,-0.20514 -0.02572,-0.38463 0.102862,-0.38463 0.154294,0 0.257156,0.1282 0.257156,0.3077 0,0.15385 0.07715,0.20515 0.154294,0.12822 0.102862,-0.077 0.411449,-0.0513 0.720036,0.10256 0.437167,0.23079 0.437167,0.1795 -0.102862,-0.28206 -0.617174,-0.53849 -0.617174,-0.53849 -0.07715,-0.38464 0.488596,0.12822 0.565743,0.0769 0.411449,-0.28207 -0.102862,-0.30771 -0.07715,-0.38463 0.128578,-0.25641 0.18001,0.10256 0.308588,0.0512 0.308588,-0.10257 0,-0.15386 0.128577,-0.20515 0.257155,-0.12822 0.154296,0.0769 0.257158,0.0256 0.257158,-0.15386 0,-0.20513 0.102861,-0.20513 0.385728,0.0257 0.308593,0.25643 0.411454,0.23079 0.540033,-0.10256 0.07715,-0.23079 0.257158,-0.33336 0.385729,-0.25643 0.128579,0.0769 0.308592,-0.0256 0.385737,-0.25643 0.07715,-0.20514 0.308585,-0.30771 0.514315,-0.23078 0.205723,0.0769 0.36002,0 0.36002,-0.1795 0,-0.15385 0.128571,-0.20513 0.257149,-0.12821 0.154297,0.0769 0.257158,0.0256 0.257158,-0.15385 0,-0.20514 0.102862,-0.20514 0.385737,0.0257 0.334302,0.28207 0.360018,0.25642 0.23144,-0.10258 -0.128579,-0.3077 -0.05146,-0.38463 0.257157,-0.25642 0.231441,0.10257 0.411447,0.0256 0.411447,-0.15385 0,-0.1795 0.180006,-0.25643 0.385736,-0.15385 0.257151,0.0769 0.38573,-0.0256 0.411447,-0.30772 0,-0.25641 0.07715,-0.30771 0.154296,-0.1282 0.07715,0.25642 0.23144,0.25642 0.668603,0 0.308585,-0.17951 0.617177,-0.38464 0.694322,-0.46157 0.205723,-0.23078 1.131484,-0.56413 1.388643,-0.51285 0.102861,0.0257 0.360018,-0.15385 0.565742,-0.41028 0.180013,-0.25643 0.360018,-0.35899 0.360018,-0.25643 0,0.12822 0.257159,0.0256 0.565744,-0.17949 0.540024,-0.38463 0.591459,-0.35899 0.900044,0.17949 0.308592,0.56414 0.308592,0.56414 0.334302,-0.17949 0,-0.71798 0,-0.74363 0.514315,-0.28206 0.282875,0.25642 0.591459,0.38463 0.694321,0.3077 0.07714,-0.10256 0.02573,-0.1795 -0.128578,-0.1795 -0.180006,0 -0.308586,-0.20513 -0.282868,-0.46155 0,-0.25643 0.07715,-0.30772 0.154288,-0.12822 0.180014,0.46157 0.591461,0.41028 0.591461,-0.0769 0,-0.20515 0.128578,-0.30772 0.257157,-0.23078 0.154296,0.10257 0.205723,0.28206 0.128579,0.41027 -0.231441,0.359 0.128578,0.28207 0.514308,-0.12821 0.23144,-0.23079 0.257157,-0.43592 0.102861,-0.58977 -0.180006,-0.1795 -0.128571,-0.30772 0.154296,-0.43593 0.23144,-0.0769 0.36002,-0.0512 0.282875,0.0513 -0.05146,0.10257 -0.02573,0.359 0.102861,0.53849 0.154289,0.28207 1.054341,-0.0257 4.011632,-1.38469 5.528856,-2.51295 6.248896,-2.69246 6.428906,-1.51291 z m -8.12614,1.33341 c 0,0.1282 -0.180013,0.43592 -0.385736,0.71798 -0.385737,0.48721 -0.411447,0.48721 -0.334302,-0.0256 0.07715,-0.58978 0.720038,-1.20519 0.720038,-0.69235 z m -1.28578,0.82055 c -0.308585,0.20515 -0.308585,0.25643 -0.02573,0.25643 0.205723,0 0.308585,0.0769 0.205723,0.15385 -0.23144,0.23078 -0.720031,-0.15385 -0.565742,-0.43592 0.102861,-0.12821 0.308592,-0.23078 0.462881,-0.23078 0.180013,0 0.154296,0.10257 -0.07715,0.25642 z m 59.91734,2.82067 c 0.79719,0.51286 -0.72003,0.58978 -7.4318,0.38464 -10.80055,-0.30771 -11.52058,-0.56413 -1.69723,-0.58978 5.01454,-0.0257 8.8976,0.0513 9.12903,0.20514 z m -83.524261,1.07698 c -0.18001,0.1795 -0.308587,0.20515 -0.308587,0.0512 0,-0.15385 0.07715,-0.35899 0.180009,-0.43592 0.07715,-0.10257 0.23144,-0.12822 0.308587,-0.0513 0.05143,0.0769 -0.02572,0.28207 -0.180009,0.43593 z m 79.666931,2.74374 c 1.51722,1.10262 1.62008,3.07708 0.23144,4.231 -1.46579,1.23083 -3.52303,0.69234 -4.47451,-1.15392 l -0.41145,-0.74362 h -4.16593 c -8.20328,0 -15.45508,-0.30771 -15.01792,-0.64106 0.23145,-0.17949 0.36002,-0.359 0.28288,-0.43592 -0.0771,-0.0769 4.24307,-0.23079 9.59192,-0.33335 9.61763,-0.1795 9.7205,-0.1795 10.36338,-0.76928 0.36002,-0.30771 0.8229,-0.64106 1.02863,-0.71798 0.59145,-0.23078 1.85152,0.0256 2.57156,0.56413 z m -35.97613,9.74411 c 3.65162,3.56429 6.66034,6.5901 6.66034,6.71832 0,0.12821 -0.43717,0.23078 -1.00291,0.23078 -0.92575,0 -1.28578,-0.28207 -6.99464,-5.7439 -5.88887,-5.61569 -8.12613,-7.84658 -7.50895,-7.48758 0.15429,0.0769 0.36002,0.0512 0.46288,-0.10257 0.10286,-0.15386 0.25716,-0.20515 0.38573,-0.12822 0.12858,0.0769 0.28288,0.0256 0.38573,-0.12821 0.10286,-0.15385 0.33431,-0.1795 0.54003,-0.0513 0.20573,0.12821 3.39447,3.12837 7.07179,6.69266 z m 23.32406,-4.8977 c 0.38573,0.48721 0.38573,0.94878 0.0514,1.61548 -0.30859,0.53849 -1.4915,0.6667 -2.26297,0.25642 -0.25716,-0.12821 -2.57156,-0.30771 -5.19455,-0.43593 -2.62299,-0.10256 -4.52595,-0.25641 -4.24308,-0.35898 0.41145,-0.15386 0.3343,-0.23079 -0.51431,-0.41029 -0.95147,-0.20513 -0.87433,-0.23078 1.15721,-0.38463 1.20862,-0.10257 3.52303,-0.1795 5.16882,-0.20514 2.10868,-0.0256 3.21445,-0.12821 3.72877,-0.41028 0.8229,-0.41028 1.59436,-0.28206 2.10868,0.33335 z m -26.82137,7.46194 4.11449,4.12843 h -1.20863 c -1.20864,0 -1.20864,0 -5.40028,-4.00022 -5.22027,-4.97462 -6.89178,-6.66702 -6.89178,-6.94908 0,-0.12822 0.30858,-0.359 0.72003,-0.48721 0.64289,-0.25643 0.84862,-0.12821 2.623,1.46162 1.05434,0.94877 3.78019,3.58994 6.04317,5.84646 z m -6.55749,-0.35899 3.72877,3.76944 -1.28579,-0.1795 c -1.41436,-0.17949 -1.41436,-0.17949 -6.994635,-5.61569 -2.211542,-2.15396 -2.803002,-2.87195 -2.571562,-3.10273 0.951479,-0.92312 1.517221,-0.51285 7.123217,5.12848 z m -6.814631,-0.64105 3.085868,3.10272 -1.157201,-0.1795 c -0.642887,-0.10256 -1.285774,-0.23078 -1.44007,-0.33335 -0.154296,-0.0769 -1.517221,-1.3334 -3.060159,-2.74373 l -2.751568,-2.61552 0.437164,-0.66671 0.437171,-0.66671 0.694321,0.48721 c 0.360012,0.28207 2.057246,1.89754 3.754474,3.61559 z m -53.154142,-3.66687 c -0.257156,0.0512 -0.720036,0.0512 -1.028623,0 -0.334303,-0.0513 -0.128579,-0.10257 0.437165,-0.10257 0.565743,-0.0257 0.822898,0.0256 0.591458,0.10257 z m -1.774376,1.12827 c -0.565743,0.35899 -0.848615,0.25642 -0.488596,-0.15386 0.180009,-0.20514 0.437165,-0.30771 0.565743,-0.23079 0.154294,0.10257 0.128578,0.25643 -0.07715,0.38465 z m 2.16011,-0.10257 c -0.334303,0.0513 -0.848615,0.0513 -1.157202,0 -0.334302,-0.0513 -0.07715,-0.10257 0.565743,-0.10257 0.642891,0 0.900046,0.0513 0.591459,0.10257 z m 98.927909,0.97441 c 0,0.20513 -0.20572,0.46156 -0.43717,0.56413 -0.25715,0.10257 -4.73166,0.15385 -9.97765,0.0769 -5.22027,-0.0769 -9.00046,-0.1795 -8.35757,-0.20515 1.08005,-0.0512 2.4687,-0.53848 1.56866,-0.56413 -0.20573,0 -0.28288,-0.0769 -0.18001,-0.20513 0.25715,-0.25643 16.38083,-0.48722 16.94657,-0.23079 0.23145,0.10257 0.43717,0.359 0.43717,0.56414 z M 41.169008,199.78353 c 0,0.1795 -0.514311,0.89748 -1.157202,1.64111 -1.208632,1.41034 -1.902954,2.74374 -1.362926,2.61552 0.154294,-0.0257 0.385734,0.33336 0.462881,0.79492 0.102862,0.46157 0.257156,0.92312 0.360018,1.00006 0.180009,0.20514 -0.668605,1.28212 -6.146028,7.64143 -2.545844,2.94888 -5.14312,6.02597 -5.78601,6.79524 -3.600183,4.41049 -8.306138,9.35948 -10.414818,10.94932 -1.722945,1.28211 -3.368744,2.20524 -3.780194,2.07703 -0.488597,-0.1795 16.637994,-21.33448 25.612738,-31.66838 1.800092,-2.07703 2.211541,-2.41039 2.211541,-1.84625 z m 1.105772,0.15385 c -0.18001,0.0512 -0.488597,0.0512 -0.642891,0 -0.180009,-0.0769 -0.05142,-0.12822 0.308588,-0.12822 0.360018,0 0.488596,0.0513 0.334303,0.12822 z m 88.59024,16.51372 c 3.06016,2.56423 5.606,4.7182 5.65743,4.82077 0.0257,0.10256 -0.92576,0.79491 -2.10868,1.53854 l -2.21154,1.30776 -4.68024,-4.00021 c -6.73749,-5.7439 -8.56329,-7.33374 -8.64043,-7.53888 -0.0257,-0.10256 1.23433,-0.28205 2.82871,-0.43591 1.59436,-0.12822 3.06016,-0.25642 3.24016,-0.28207 0.20572,-0.0256 2.85443,2.02575 5.91459,4.59 z m -94.504828,0.0512 c -0.282872,0.30772 -0.591459,0.74363 -0.720037,0.94877 -0.102863,0.20514 0.23144,-0.0769 0.745753,-0.64105 0.488596,-0.56415 0.900045,-0.8975 0.925761,-0.76928 0,0.30771 -10.234808,12.59043 -12.472065,14.94953 -1.131487,1.17954 -1.800093,1.66675 -2.494414,1.84625 -0.540027,0.10257 -0.977193,0.12821 -0.977193,0.0256 0,-0.0769 1.080055,-1.38468 2.417267,-2.87195 1.311495,-1.48725 4.26879,-4.87205 6.583193,-7.56451 2.288688,-2.66681 4.268789,-4.82077 4.371652,-4.79513 0.102862,0.0256 0.411449,-0.1795 0.642889,-0.43592 0.257157,-0.28206 0.385735,-0.51285 0.257157,-0.51285 -0.102863,0 0.07714,-0.23078 0.41145,-0.4872 0.797184,-0.64107 0.977193,-0.43592 0.308587,0.30771 z m 4.860248,3.94894 c -1.388643,1.94882 -7.406092,8.89791 -8.949029,10.30825 -1.517219,1.43597 -3.625899,2.74373 -3.908771,2.46167 -0.05142,-0.0512 0.797183,-1.25649 1.902955,-2.69246 1.131486,-1.41033 2.365834,-3.00015 2.751569,-3.53865 0.411449,-0.51285 1.465788,-1.76932 2.365834,-2.74374 0.900047,-1.00005 1.928671,-2.15396 2.314404,-2.56424 0.385735,-0.43592 0.617175,-0.61542 0.514313,-0.46156 -0.07715,0.17949 -0.02571,0.33335 0.102862,0.33335 0.154294,0 0.282872,-0.12821 0.282872,-0.30771 0,-0.15386 0.07715,-0.23078 0.154293,-0.12821 0.07715,0.0769 0.694322,-0.20514 1.337211,-0.61542 1.46579,-0.92312 1.774377,-0.94877 1.131487,-0.0513 z"
       id="path1"
       style="fill:#000000;stroke:none;stroke-width:0.025679;opacity:0.19871795" />
    <path
       d="m 144.41714,81.264293 c -1.95438,0.512848 -4.03735,2.359102 -5.04026,4.513064 -0.61717,1.256478 -0.74575,1.897539 -0.74575,3.384798 0,1.025696 0.12858,2.179605 0.28287,2.564241 0.74576,1.794969 1.02863,2.384744 1.26007,2.512957 0.15428,0.07693 0.25715,0.410279 0.25715,0.692345 0,0.30771 0.0771,0.461564 0.15429,0.384637 0.25716,-0.256425 1.13149,0.307708 1.13149,0.743629 0,0.20514 0.10286,0.307709 0.25716,0.230782 0.12858,-0.07692 0.43716,0.07692 0.69432,0.358993 0.23144,0.282068 0.51432,0.461564 0.61717,0.41028 0.10287,-0.07693 0.61718,0.07692 1.15721,0.307708 1.10577,0.461564 3.39445,0.615418 3.85733,0.282067 0.18001,-0.128212 0.41146,-0.20514 0.51432,-0.153855 0.12858,0.02565 0.69432,-0.153855 1.23435,-0.384636 0.56574,-0.256424 1.05433,-0.384636 1.10577,-0.333351 0.0771,0.07692 0.59145,-0.384636 1.1572,-1.000054 0.6686,-0.717988 1.18291,-1.051339 1.44007,-0.974412 0.25716,0.128212 0.3343,0.05129 0.20572,-0.153854 -0.28287,-0.435922 0.61718,-2.077036 1.13149,-2.077036 0.28287,0 0.30859,-0.07692 0.0771,-0.205139 -0.20572,-0.128212 -0.23144,-0.487206 -0.10286,-1.076981 0.77147,-3.487369 -1.36292,-7.564512 -4.91169,-9.385124 -1.3372,-0.666702 -4.32021,-1.025696 -5.73456,-0.641059 z m 3.11159,2.743737 c 1.80008,0.8462 2.18582,2.948878 0.79718,4.333569 -1.56865,1.564187 -3.96021,1.359047 -5.06597,-0.435922 -0.61718,-1.025696 -0.64289,-1.282121 -0.0771,-2.436029 0.79717,-1.6924 2.59726,-2.282175 4.34593,-1.461618 z"
       id="path14"
       style="fill:#000000;stroke:none;stroke-width:0.025679;opacity:0.19871795" />
  </g>
</svg>
